<svg id="crotalus" xmlns="http://www.w3.org/2000/svg" xmlns:xlink="http://www.w3.org/1999/xlink" viewBox="0 0 2732 2540.8"><defs><style>.cls-1,.cls-6{fill:none;}.cls-2,.cls-3,.cls-4{fill:#bababa;}.cls-3{clip-path:url(#clip-path-2);}.cls-4{clip-path:url(#clip-path-3);}.cls-5{clip-path:url(#clip-path-5);}.cls-6{stroke:#bababa;stroke-linecap:round;stroke-linejoin:round;stroke-width:9px;}</style><clipPath id="clip-path"><path class="cls-1" d="M1337.9,1590.5c-27.8,16.1-30.3,15.5-32.7,14.9a5.2,5.2,0,0,1-3.2-2.4c-2.3-3.9.8-7.2,10.1-15.4,5.9-5.3,14.5-12.6,26.4-22.2,22-17.9,51.7-41.4,80.5-64.1s60.6-47.8,82.4-65.7c-17.1,10.1-39,23.4-58.4,35.2-78,47.4-81.8,49-85.4,48a4.7,4.7,0,0,1-2.9-2.1c-2-3.5.9-6.9,4.9-11.6s7.3-8.1,13.3-14.4c11-11.5,26-26.7,40.6-41.4s28.2-28.6,39.2-40.1l-4.6,2.8c-28.4,17.8-29.8,18.2-32.7,17.5a4.9,4.9,0,0,1-2.9-2.2c-1.8-3.1-1.9-3.3,23.5-48,6-10.5,13-22.9,17-30.3a1.8,1.8,0,0,1-.5-.7,4.4,4.4,0,0,1,1.6-6.1l.5-.3h0l1.4-.8c2.5-1.6,3.6-2.2,5.5-1.7a4.3,4.3,0,0,1,2.8,2.1c1.8,3,1.8,3-20.5,42.2-5.7,10.1-12.7,22.5-17.5,31.2,5.3-3.2,11.7-7.1,17-10.5,26.4-16.5,27.8-17,30.6-16.3a4.5,4.5,0,0,1,2.9,2.1c2,3.5-.8,6.8-4.8,11.3s-7,7.8-12.7,13.8c-10.7,11.2-25.3,26-39.4,40.3s-32.3,32.6-43.9,44.9c16.4-9.5,41-24.5,62.3-37.4,84.2-51.2,89-53.2,92.8-52.2a4.4,4.4,0,0,1,2.9,2.2c2.3,4-1.2,7.4-9.3,14.6-5.5,4.8-13.5,11.5-24.5,20.5-20.3,16.5-48.4,38.7-75.6,60.2-34.4,27.1-74.7,58.8-97.2,77.8,24-13.6,63.7-38.2,97.6-59.3,27.4-17,55.7-34.5,77.1-47.2,37.1-22.1,39.8-21.4,42.4-20.8a5.2,5.2,0,0,1,3.1,2.3,4.6,4.6,0,0,1-1.7,6.2,4.8,4.8,0,0,1-3.3.5c-9.7,2.7-66.8,38.1-112.8,66.7-28.3,17.5-57.6,35.7-80.1,49Zm201.9-124.8Zm-79.5-121.9Zm-5.4-2a4.5,4.5,0,0,1,5.4,2A4.7,4.7,0,0,0,1454.9,1341.8ZM1753,1667.6a5.2,5.2,0,0,1-4.1.9,4.8,4.8,0,0,1-2.2-1.2c-1.7-1.3-12.7-8.2-21.6-13.8l-21.9-13.9c-6.9,3.3-30.7,17.8-50.1,29.7-55,33.5-55.8,33.3-58.8,32.5a4.6,4.6,0,0,1-2.9-2.1c-1.9-3.2.3-5.8,4-10.2,2.3-2.7,5.7-6.6,10.4-11.7,8.8-9.5,20.5-22,33-35.2,15-16,33.6-35.8,45.4-48.9-17.7,10.2-46.7,27.9-71.6,43.2s-48.5,29.6-67.5,40.9c-33.4,19.6-35.4,19.1-37.9,18.5a4.6,4.6,0,0,1-3-2.3c-2.2-3.7.8-6.9,7.8-13.7,4.6-4.5,11.2-10.6,20.4-18.8,16.9-15.1,39.7-34.9,61.8-54s48.1-41.6,64.2-56.2c-28.7,15.9-83,49.1-129,77.2-33.9,20.7-65.9,40.3-90.9,55.1-43,25.4-45.3,24.8-47.9,24.1a4.6,4.6,0,0,1-3-2.2c-2.3-4,.9-7.1,9.1-14.5,5.3-4.8,13.1-11.5,23.8-20.3,19.8-16.4,46.9-38.3,73.1-59.4,30.2-24.3,65.4-52.6,86.5-70.5-29.3,16.6-81.8,48.8-129.7,78.2-42.9,26.3-87.2,53.5-121.7,73.8-59.6,35.1-63.4,34.1-66.4,33.3a5.1,5.1,0,0,1-3.3-2.4c-2.3-4.1.7-7.5,12.3-17,7.4-6,18.1-14.2,32.9-25.2,27.5-20.4,64.1-46.5,102.8-74.2s79.1-56.6,109.9-79.4c20.7-15.3,33.6-25.4,41.6-31.9-12,6-32.7,17.4-68.1,38.3-45.3,26.7-102.5,61.6-157.8,95.4-48.9,29.9-95.1,58.2-130.5,79.1-60,35.6-63,34.8-66,34.1a5,5,0,0,1-3-2.3c-2.1-3.6.6-6.7,6-12.5,3.5-3.8,8.8-9,15.9-16,13.2-12.9,31.2-29.8,48.6-46.2s36.3-34.2,49.5-47.1c-22.8,13-61.2,36.4-96.4,57.8-33.7,20.5-68.5,41.6-95.6,57.5-47.1,27.7-49.6,27-52.3,26.3a4.4,4.4,0,0,1-3-2.3c-2.2-3.8.9-6.9,8.1-13.7,4.7-4.4,11.7-10.5,21.2-18.7,17.6-15.1,41.9-35.3,65.3-54.8,26.5-22,57.1-47.5,76.4-64.4-21.7,12.6-55,33.1-85.8,52-29.3,18-59.6,36.6-83,50.4-40.8,24-43.3,23.4-46,22.7a4.8,4.8,0,0,1-3.1-2.3c-2.3-3.9,1-7.5,8.8-14.7,5.3-4.8,13-11.4,23.7-20.2,19.7-16.2,46.9-37.7,73.1-58.5,31.7-25.1,68.7-54.4,89.9-72.5-20.6,11.8-51.8,31-77,46.4-75.6,46.4-79.4,48-83.1,47a4.6,4.6,0,0,1-2.9-2.2c-2-3.5.7-6.3,5.5-11.3,3.2-3.3,7.8-7.9,14.1-14,11.8-11.4,27.6-26.2,44.4-41.8,18.7-17.6,41.7-39.1,57.2-54.3l-22.7,13.8c-47.2,28.9-47.9,28.7-50.8,28a4.4,4.4,0,0,1-2.9-2.2c-1.9-3.2.5-6.3,4.2-10.9s6.2-7.5,11.3-13.4c9.4-10.7,22.2-24.8,34.6-38.5,10.5-11.6,22.4-24.7,31.4-35l-7.5,4.4c-6.7,3.9-6.7,3.9-8.6,3.4l1.2-4.4,3.9-2.2a4.5,4.5,0,0,0-5.9-1.8c.9-.5,9.3-5.3,16-9.3l11.6-6.7c7-4,7-4,8.8-3.5a4.3,4.3,0,0,1,2.8,2.1c1.8,3.2-.5,6-3.9,10.4-2.4,2.9-5.8,7-10.6,12.4-8.7,10-20.9,23.3-32.6,36.3s-26.6,29.4-36.5,40.7l28.8-17.5c46.4-28.4,47-28.2,50-27.4a4.3,4.3,0,0,1,2.8,2.1c2.1,3.6-.7,6.8-6.6,13-3.9,4.2-9.6,9.9-17.5,17.5-14.4,14-33.7,32-52.4,49.5-15.4,14.5-32,30.1-44.2,41.8,15.3-9,36.1-21.8,55.4-33.7,86.4-53,99.1-59.7,104-58.5a4.4,4.4,0,0,1,3,2.3c2.4,4-1,7.7-9.2,15.2-5.5,5.1-13.5,12-24.7,21.2-20.5,16.9-48.6,39.1-75.7,60.6-30.5,24.2-66.2,52.4-86.6,69.8,24.7-13.9,66.8-39.8,102.8-61.9,27.8-17,54-33.1,74.4-45.2,35.4-21,37.4-20.5,40-19.9a5.3,5.3,0,0,1,3,2.3c2.2,3.8-1,7.1-8.4,14.1-5,4.6-12.1,10.9-22,19.4-18.3,15.7-43.1,36.3-67.2,56.4-26,21.6-56.3,46.8-74.9,63.1,28.1-15.7,78.2-46.2,120.8-72.1,29.9-18.2,58.1-35.3,79.8-48.1,37.4-22.1,39.1-21.7,41.6-21a4.9,4.9,0,0,1,2.9,2.2c2.1,3.6-1,6.8-5.7,11.8s-8.1,8.4-14.8,14.9c-12.4,12.1-29.5,28.2-46,43.8-19.9,18.6-43,40.4-56.7,54.1,32.5-17.6,107.2-63.2,174.8-104.5,56.6-34.6,115-70.3,160.9-97.3,78.7-46.3,83.4-45.1,86.9-44.2a5.6,5.6,0,0,1,3.3,2.5c2.4,4.1-.4,7.9-14,19.2-8.5,7-20.9,16.6-37.9,29.2-31.5,23.5-73.9,53.8-114.9,83.1-48.1,34.4-100.9,72.2-127.7,93,9.5-5.1,23-12.7,42.4-24.2,34-20.1,77.1-46.5,118.8-72.1,38.9-23.8,75.5-46.3,103.9-63.2,48.5-28.7,51.1-28,53.9-27.3a4.8,4.8,0,0,1,3.1,2.3c2.3,3.9-1,7.1-9.3,14.6-5.4,4.9-13.3,11.6-24.1,20.6-20.1,16.7-47.5,38.7-74,60-29,23.4-62.7,50.6-83.7,68.3,26.3-15.1,69.6-41.5,109.2-65.8,35.4-21.6,71.9-43.9,100-60.5,48.6-28.6,51.5-27.9,54.3-27.2a5.6,5.6,0,0,1,3.1,2.3c2.2,3.8-1.1,7-7.1,12.8-4,3.9-10,9.4-18.2,16.7-15.2,13.5-35.4,31-56.7,49.4-24.8,21.5-53.7,46.5-71.4,62.6,20.4-11.7,52-31,79.2-47.7,22.4-13.7,43.6-26.7,60.1-36.5,28.9-17.1,30.5-16.7,32.8-16.1a4.8,4.8,0,0,1,3,2.2c1.9,3.3-.3,6.2-5,11.8-3,3.7-7.4,8.6-13.4,15.2-11.1,12.2-25.8,27.8-40.1,43-11,11.6-22.7,24.1-31.6,33.8,10.3-6.1,23.2-14,34.7-21,53-32.4,53.7-32.2,56.7-31.4a4,4,0,0,1,2.1,1.2c2,1.5,13.4,8.7,22.7,14.5,11.5,7.2,17.3,10.8,20.3,12.8l.5-.3c3.2-2.2,4.7-3.2,6.9-2.7a4.6,4.6,0,0,1,3,2.2,4.5,4.5,0,0,1-1.7,6.1l-1.1.5-2,1.3A21,21,0,0,1,1753,1667.6Zm-.2-5.2a6.7,6.7,0,0,0,1.4,1.5A4,4,0,0,1,1752.8,1662.4Zm-6.7,4.1Zm0,0Zm0,0Zm0,0Zm0,0Zm0-.1h0Zm-.1,0h0Zm0,0Zm0,0Zm0,0Zm0,0Zm0-.1h0Zm0,0Zm0,0Zm0,0Zm-38.1-34h0Zm0,0Z"/></clipPath><clipPath id="clip-path-2"><path class="cls-2" d="M1337.9,1590.5c-27.8,16.1-30.3,15.5-32.7,14.9a5.2,5.2,0,0,1-3.2-2.4c-2.3-3.9.8-7.2,10.1-15.4,5.9-5.3,14.5-12.6,26.4-22.2,22-17.9,51.7-41.4,80.5-64.1s60.6-47.8,82.4-65.7c-17.1,10.1-39,23.4-58.4,35.2-78,47.4-81.8,49-85.4,48a4.7,4.7,0,0,1-2.9-2.1c-2-3.5.9-6.9,4.9-11.6s7.3-8.1,13.3-14.4c11-11.5,26-26.7,40.6-41.4s28.2-28.6,39.2-40.1l-4.6,2.8c-28.4,17.8-29.8,18.2-32.7,17.5a4.9,4.9,0,0,1-2.9-2.2c-1.8-3.1-1.9-3.3,23.5-48,6-10.5,13-22.9,17-30.3a1.8,1.8,0,0,1-.5-.7,4.4,4.4,0,0,1,1.6-6.1l.5-.3h0l1.4-.8c2.5-1.6,3.6-2.2,5.5-1.7a4.3,4.3,0,0,1,2.8,2.1c1.8,3,1.8,3-20.5,42.2-5.7,10.1-12.7,22.5-17.5,31.2,5.3-3.2,11.7-7.1,17-10.5,26.4-16.5,27.8-17,30.6-16.3a4.5,4.5,0,0,1,2.9,2.1c2,3.5-.8,6.8-4.8,11.3s-7,7.8-12.7,13.8c-10.7,11.2-25.3,26-39.4,40.3s-32.3,32.6-43.9,44.9c16.4-9.5,41-24.5,62.3-37.4,84.2-51.2,89-53.2,92.8-52.2a4.4,4.4,0,0,1,2.9,2.2c2.3,4-1.2,7.4-9.3,14.6-5.5,4.8-13.5,11.5-24.5,20.5-20.3,16.5-48.4,38.7-75.6,60.2-34.4,27.1-74.7,58.8-97.2,77.8,24-13.6,63.7-38.2,97.6-59.3,27.4-17,55.7-34.5,77.1-47.2,37.1-22.1,39.8-21.4,42.4-20.8a5.2,5.2,0,0,1,3.1,2.3,4.6,4.6,0,0,1-1.7,6.2,4.8,4.8,0,0,1-3.3.5c-9.7,2.7-66.8,38.1-112.8,66.7-28.3,17.5-57.6,35.7-80.1,49Zm201.9-124.8Zm-79.5-121.9Zm-5.4-2a4.5,4.5,0,0,1,5.4,2A4.7,4.7,0,0,0,1454.9,1341.8ZM1753,1667.6a5.2,5.2,0,0,1-4.1.9,4.8,4.8,0,0,1-2.2-1.2c-1.7-1.3-12.7-8.2-21.6-13.8l-21.9-13.9c-6.9,3.3-30.7,17.8-50.1,29.7-55,33.5-55.8,33.3-58.8,32.5a4.6,4.6,0,0,1-2.9-2.1c-1.9-3.2.3-5.8,4-10.2,2.3-2.7,5.7-6.6,10.4-11.7,8.8-9.5,20.5-22,33-35.2,15-16,33.6-35.8,45.4-48.9-17.7,10.2-46.7,27.9-71.6,43.2s-48.5,29.6-67.5,40.9c-33.4,19.6-35.4,19.1-37.9,18.5a4.6,4.6,0,0,1-3-2.3c-2.2-3.7.8-6.9,7.8-13.7,4.6-4.5,11.2-10.6,20.4-18.8,16.9-15.1,39.7-34.9,61.8-54s48.1-41.6,64.2-56.2c-28.7,15.9-83,49.1-129,77.2-33.9,20.7-65.9,40.3-90.9,55.1-43,25.4-45.3,24.8-47.9,24.1a4.6,4.6,0,0,1-3-2.2c-2.3-4,.9-7.1,9.1-14.5,5.3-4.8,13.1-11.5,23.8-20.3,19.8-16.4,46.9-38.3,73.1-59.4,30.2-24.3,65.4-52.6,86.5-70.5-29.3,16.6-81.8,48.8-129.7,78.2-42.9,26.3-87.2,53.5-121.7,73.8-59.6,35.1-63.4,34.1-66.4,33.3a5.1,5.1,0,0,1-3.3-2.4c-2.3-4.1.7-7.5,12.3-17,7.4-6,18.1-14.2,32.9-25.2,27.5-20.4,64.1-46.5,102.8-74.2s79.1-56.6,109.9-79.4c20.7-15.3,33.6-25.4,41.6-31.9-12,6-32.7,17.4-68.1,38.3-45.3,26.7-102.5,61.6-157.8,95.4-48.9,29.9-95.1,58.2-130.5,79.1-60,35.6-63,34.8-66,34.1a5,5,0,0,1-3-2.3c-2.1-3.6.6-6.7,6-12.5,3.5-3.8,8.8-9,15.9-16,13.2-12.9,31.2-29.8,48.6-46.2s36.3-34.2,49.5-47.1c-22.8,13-61.2,36.4-96.4,57.8-33.7,20.5-68.5,41.6-95.6,57.5-47.1,27.7-49.6,27-52.3,26.3a4.4,4.4,0,0,1-3-2.3c-2.2-3.8.9-6.9,8.1-13.7,4.7-4.4,11.7-10.5,21.2-18.7,17.6-15.1,41.9-35.3,65.3-54.8,26.5-22,57.1-47.5,76.4-64.4-21.7,12.6-55,33.1-85.8,52-29.3,18-59.6,36.6-83,50.4-40.8,24-43.3,23.4-46,22.7a4.8,4.8,0,0,1-3.1-2.3c-2.3-3.9,1-7.5,8.8-14.7,5.3-4.8,13-11.4,23.7-20.2,19.7-16.2,46.9-37.7,73.1-58.5,31.7-25.1,68.7-54.4,89.9-72.5-20.6,11.8-51.8,31-77,46.4-75.6,46.4-79.4,48-83.1,47a4.6,4.6,0,0,1-2.9-2.2c-2-3.5.7-6.3,5.5-11.3,3.2-3.3,7.8-7.9,14.1-14,11.8-11.4,27.6-26.2,44.4-41.8,18.7-17.6,41.7-39.1,57.2-54.3l-22.7,13.8c-47.2,28.9-47.9,28.7-50.8,28a4.4,4.4,0,0,1-2.9-2.2c-1.9-3.2.5-6.3,4.2-10.9s6.2-7.5,11.3-13.4c9.4-10.7,22.2-24.8,34.6-38.5,10.5-11.6,22.4-24.7,31.4-35l-7.5,4.4c-6.7,3.9-6.7,3.9-8.6,3.4l1.2-4.4,3.9-2.2a4.5,4.5,0,0,0-5.9-1.8c.9-.5,9.3-5.3,16-9.3l11.6-6.7c7-4,7-4,8.8-3.5a4.3,4.3,0,0,1,2.8,2.1c1.8,3.2-.5,6-3.9,10.4-2.4,2.9-5.8,7-10.6,12.4-8.7,10-20.9,23.3-32.6,36.3s-26.6,29.4-36.5,40.7l28.8-17.5c46.4-28.4,47-28.2,50-27.4a4.3,4.3,0,0,1,2.8,2.1c2.1,3.6-.7,6.8-6.6,13-3.9,4.2-9.6,9.9-17.5,17.5-14.4,14-33.7,32-52.4,49.5-15.4,14.5-32,30.1-44.2,41.8,15.3-9,36.1-21.8,55.4-33.7,86.4-53,99.1-59.7,104-58.5a4.4,4.4,0,0,1,3,2.3c2.4,4-1,7.7-9.2,15.2-5.5,5.1-13.5,12-24.7,21.2-20.5,16.9-48.6,39.1-75.7,60.6-30.5,24.2-66.2,52.4-86.6,69.8,24.7-13.9,66.8-39.8,102.8-61.9,27.8-17,54-33.1,74.4-45.2,35.4-21,37.4-20.5,40-19.9a5.3,5.3,0,0,1,3,2.3c2.2,3.8-1,7.1-8.4,14.1-5,4.6-12.1,10.9-22,19.4-18.3,15.7-43.1,36.3-67.2,56.4-26,21.6-56.3,46.8-74.9,63.1,28.1-15.7,78.2-46.2,120.8-72.1,29.9-18.2,58.1-35.3,79.8-48.1,37.4-22.1,39.1-21.7,41.6-21a4.9,4.9,0,0,1,2.9,2.2c2.1,3.6-1,6.8-5.7,11.8s-8.1,8.4-14.8,14.9c-12.4,12.1-29.5,28.2-46,43.8-19.9,18.6-43,40.4-56.7,54.1,32.5-17.6,107.2-63.2,174.8-104.5,56.6-34.6,115-70.3,160.9-97.3,78.7-46.3,83.4-45.1,86.9-44.2a5.6,5.6,0,0,1,3.3,2.5c2.4,4.1-.4,7.9-14,19.2-8.5,7-20.9,16.6-37.9,29.2-31.5,23.5-73.9,53.8-114.9,83.1-48.1,34.4-100.9,72.2-127.7,93,9.5-5.1,23-12.7,42.4-24.2,34-20.1,77.1-46.5,118.8-72.1,38.9-23.8,75.5-46.3,103.9-63.2,48.5-28.7,51.1-28,53.9-27.3a4.8,4.8,0,0,1,3.1,2.3c2.3,3.9-1,7.1-9.3,14.6-5.4,4.9-13.3,11.6-24.1,20.6-20.1,16.7-47.5,38.7-74,60-29,23.4-62.7,50.6-83.7,68.3,26.3-15.1,69.6-41.5,109.2-65.8,35.4-21.6,71.9-43.9,100-60.5,48.6-28.6,51.5-27.9,54.3-27.2a5.6,5.6,0,0,1,3.1,2.3c2.2,3.8-1.1,7-7.1,12.8-4,3.9-10,9.4-18.2,16.7-15.2,13.5-35.4,31-56.7,49.4-24.8,21.5-53.7,46.5-71.4,62.6,20.4-11.7,52-31,79.2-47.7,22.4-13.7,43.6-26.7,60.1-36.5,28.9-17.1,30.5-16.7,32.8-16.1a4.8,4.8,0,0,1,3,2.2c1.9,3.3-.3,6.2-5,11.8-3,3.7-7.4,8.6-13.4,15.2-11.1,12.2-25.8,27.8-40.1,43-11,11.6-22.7,24.1-31.6,33.8,10.3-6.1,23.2-14,34.7-21,53-32.4,53.7-32.2,56.7-31.4a4,4,0,0,1,2.1,1.2c2,1.5,13.4,8.7,22.7,14.5,11.5,7.2,17.3,10.8,20.3,12.8l.5-.3c3.2-2.2,4.7-3.2,6.9-2.7a4.6,4.6,0,0,1,3,2.2,4.5,4.5,0,0,1-1.7,6.1l-1.1.5-2,1.3A21,21,0,0,1,1753,1667.6Zm-.2-5.2a6.7,6.7,0,0,0,1.4,1.5A4,4,0,0,1,1752.8,1662.4Zm-6.7,4.1Zm0,0Zm0,0Zm0,0Zm0,0Zm0-.1h0Zm-.1,0h0Zm0,0Zm0,0Zm0,0Zm0,0Zm0-.1h0Zm0,0Zm0,0Zm0,0Zm-38.1-34h0Zm0,0Z"/></clipPath><clipPath id="clip-path-3"><path class="cls-3" d="M1929.8,1737.9c-16.5,9.6-18.9,9.9-21,9.4a5.2,5.2,0,0,1-3-2.2c-2.1-3.7,1-6.9,6.1-12.3,3.6-3.8,8.8-9,16-15.9,13.3-12.8,31.4-29.7,48.9-46s38.1-35.5,51.9-49c-15.7,9.2-37.5,22.5-56.6,34.1-74.7,45.6-78.7,47.2-82.3,46.3a4.4,4.4,0,0,1-2.9-2.2c-2.2-3.7,1-6.9,6.2-12.3,3.6-3.7,9-8.8,16.3-15.7,13.7-12.7,31.7-28.9,50.7-46.2s43.3-39,58.9-53.8l-42.3,25.5c-70.9,43.1-74.7,44.6-78.2,43.7a4.6,4.6,0,0,1-2.9-2.2c-2-3.4.7-6.5,4.8-11.1s7-7.6,12.7-13.5c10.6-10.9,24.7-24.8,39.6-39.7s35.2-35.1,48-48.4c-14,8.1-33.6,20.1-50.7,30.6-64.3,39.2-67.5,40.5-70.9,39.6a4.6,4.6,0,0,1-2.9-2.2c-2-3.4.7-6.3,5.6-11.5,3.2-3.5,7.9-8.2,14.3-14.6,12-11.8,28.5-27.7,44.4-43s36.9-35.5,50.5-49c-14,8.2-32.7,19.5-49.1,29.5-69.4,42-70.2,41.8-73.4,41a4.9,4.9,0,0,1-2.9-2.2c-2.1-3.6,1.1-7,5.9-12.1s8.4-8.7,15.3-15.4c12.8-12.5,30.3-28.9,47.3-44.9s38-35.7,51.7-49.1c-15.9,9.3-38.5,23.1-58.2,35.1-75.4,46-83.3,50.1-87.4,49.1a4.6,4.6,0,0,1-2.9-2.2c-1.9-3.3.4-6,4.2-10.4s6.1-7,11.1-12.4c9.2-10.1,21.4-23.1,34.4-36.8s30.3-32.1,41.7-44.8l-23.2,14.3c-42.3,26-43,25.8-45.9,25.1a4.6,4.6,0,0,1-2.9-2.2c-1.6-2.8,0-5.2,2.8-9.2l7.8-10.4c6.4-8.4,15-19.4,24.1-31s21.1-26.9,29.2-37.6c-10,5.8-23.2,13.8-34.8,20.8-55.5,33.4-56,33.2-58.9,32.5a4.4,4.4,0,0,1-2.8-2.2c-1.7-2.9.2-5.6,2.8-9.4s4.3-6.2,7.9-10.9c6.6-8.8,15.7-20.5,24.6-31.9s19-24.5,26.5-34.5l-16.8,10c-27.9,16.6-27.9,16.6-30.2,16a4.3,4.3,0,0,1-2.8-2.1c-1.4-2.4-1.4-2.4,9.4-35.7,2.6-8.1,5.8-17.9,8-25.1l-4.8,2.8-9.2,5.4c-5.8,3.3-5.8,3.3-7.6,2.8l1.2-4.3,3.8-2.3-3.8,2.3-2.1-4,13.2-7.7,10.5-6c5.2-3.1,5.3-3,7-2.6a4.6,4.6,0,0,1,2.8,2.1c1.4,2.5,1.5,2.6-10.5,39.4-2.3,7.2-5,15.4-6.9,21.6l17.4-10.4c33.9-20.2,33.9-20.2,36.5-19.5a4.6,4.6,0,0,1,2.8,2.1c1.7,3-.2,5.9-2.9,9.9s-4.7,6.6-8.5,11.7c-7.1,9.4-16.7,21.7-25.9,33.6s-17.9,23-24.8,32.2c10.9-6.4,26.2-15.5,39.4-23.5,51.4-31,51.8-30.9,54.6-30.2a4.7,4.7,0,0,1,2.8,2.2c1.7,2.9-.2,5.7-3.3,10.1s-5,7-9.2,12.4c-7.5,10-17.7,23-27.5,35.5L1875,1423c7.8-4.6,17.3-10.5,25.7-15.7,43.1-26.5,43.8-26.3,46.7-25.6a4.6,4.6,0,0,1,2.9,2.2c1.9,3.4-.6,6.4-4.8,11.5-2.9,3.4-7.2,8.2-13,14.5-10.7,11.7-25,27-38.9,41.7-12,12.7-25.6,27.2-35.4,37.8h.3c16.8-9.7,42.3-25.3,64.4-38.8,75.8-46.3,79.9-47.9,83.6-47a4.9,4.9,0,0,1,2.9,2.2c2,3.5-.6,6.6-5.9,12.2-3.5,3.7-8.5,8.8-15.5,15.6-13,12.6-30.6,29.2-47.7,45.3s-36.6,34.3-50.1,47.5c13.6-8,31.4-18.7,47-28.2,71.1-43.1,71.9-42.9,75.2-42a4.6,4.6,0,0,1,2.8,2.1c2.1,3.6-.7,6.6-5.9,12.2-3.5,3.7-8.5,8.9-15.5,15.8-12.8,12.7-30.2,29.4-47.1,45.6s-33,31.7-45.6,44.2c12.9-7.6,29.5-17.8,44.2-26.7,66.9-40.8,70.5-42.3,74-41.4a5,5,0,0,1,2.9,2.2c2,3.4-.6,6.7-5.3,12.1-3.2,3.6-7.9,8.6-14.4,15.3-11.9,12.3-27.9,28.3-43.5,43.7-13.9,13.8-29.7,29.6-40.9,41.2,14.8-8.7,35.7-21.4,54-32.5,66.2-40.2,66.9-40,70-39.2a4.4,4.4,0,0,1,2.9,2.2c2.1,3.6-.7,6.8-6.7,13-4,4.1-9.9,9.7-17.9,17.2-14.8,13.9-34.9,32-54.3,49.5s-38.9,35.2-53.4,48.8c15.5-9.1,36.4-21.9,54.7-33,75.1-45.8,79.2-47.4,82.8-46.5a4.4,4.4,0,0,1,2.9,2.2c2.1,3.6-.9,6.8-6,12.2-3.5,3.7-8.6,8.8-15.7,15.6-13.1,12.6-31.1,29.3-48.4,45.5s-38.9,36.3-53,50c14.6-8.6,34.2-20.5,50.3-30.4,60.7-37.1,63.6-38.2,66.8-37.4a4.7,4.7,0,0,1,2.9,2.2,4.5,4.5,0,0,1-3.8,6.8c-5.8,2.3-36.4,21-61.2,36.1C1957.8,1721.3,1940.7,1731.6,1929.8,1737.9Zm112.4-71.5.4.5Zm0-.1h0Zm0,0Zm0,0ZM1088.5,827.2c-3.2,1.9-3.9,1.9-5.4,1.5a4.3,4.3,0,0,1-2.8-2.1c-1.4-2.4-1.4-2.4,9.6-38.3,2.4-7.8,5.1-16.8,7-23.2-12.4,6.8-37.7,22.2-58.9,35.1-61.7,37.6-62.5,37.4-65.6,36.6a4.4,4.4,0,0,1-2.8-2.2c-2.1-3.5.9-6.9,5-11.6s7.5-8.3,13.6-14.6c11.2-11.7,26.6-27.1,41.5-42s32.7-32.8,44.3-44.8c-21.8,12.2-60.2,35.8-93,55.8-28.2,17.3-57.5,35.1-79.8,48.3-38.9,22.9-41.2,22.4-43.7,21.7a4.8,4.8,0,0,1-3.1-2.3c-2.2-3.8.6-6.9,9-14.8,5.3-5,13.1-11.8,23.7-20.9,19.6-16.8,45.9-38.5,71.4-59.6s55-45.6,72.4-60.7c-29.7,16.4-86.7,51.4-134.8,81.1-35.7,22-72.6,44.7-100.4,61.2-47.9,28.4-50.9,27.6-53.8,26.9a5.2,5.2,0,0,1-3.1-2.3,4.4,4.4,0,0,1,5-6.6c11.5-3,86.8-49.4,147.5-86.8,36.9-22.8,75-46.3,104.2-63.5,50.1-29.7,53.4-28.8,56.3-28.1a4.9,4.9,0,0,1,3.2,2.4c2.3,3.9-1.3,7.2-7.8,13.2-4.5,4.1-11,9.9-20.1,17.6-16.8,14.4-39.2,32.9-62.9,52.5-29.7,24.6-64.4,53.4-84.7,71.2,23.8-13.5,63.1-37.6,96.8-58.2,26.6-16.3,54.2-33.1,74.8-45.3,35.9-21.2,37.8-20.7,40.3-20a4.8,4.8,0,0,1,3,2.2c2,3.5-.9,6.8-4.9,11.4s-7.2,7.9-13.1,14c-10.9,11.3-25.8,26.3-40.3,40.8s-32.3,32.3-44.2,44.7c12-7.1,27.6-16.6,41.4-25,64.6-39.3,67.8-40.5,71.2-39.7a4.4,4.4,0,0,1,2.9,2.2c1.4,2.4,1.4,2.4-8.9,36-2.4,7.7-5.3,17.2-7.3,24.1,7.3-4.5,7.7-4.7,9.7-4.1a4.3,4.3,0,0,1,2.8,2.1,4.4,4.4,0,0,1-1.6,6.1l-1,.5c-1.2.6-4.4,2.5-6.6,3.9Zm7.4-9.6a5.5,5.5,0,0,0,1.7,1.7A4.6,4.6,0,0,1,1095.9,817.6Zm3.2-60.5ZM746.6,851.5Zm0-.1Zm1168.7,1113c-12,6.9-13,6.6-14.9,6.2a4.9,4.9,0,0,1-2.9-2.2c-2-3.5.8-6.5,5.4-11.4,3.2-3.3,7.8-8,14.1-14.1,11.7-11.5,27.3-26.3,43.9-42,20.1-19.1,43.5-41.3,57.7-55.6-22.6,12.8-63.1,37.7-97.5,59-30,18.4-61,37.5-84.9,51.6-41.4,24.6-44.2,23.9-46.9,23.2a4.8,4.8,0,0,1-3.1-2.4c-2.4-4,.9-7.3,10.3-15.3,6-5.1,14.9-12.2,27.2-21.7,22.7-17.6,53.1-40.4,85.2-64.4,42.5-31.9,96.7-72.4,123.4-94.5-32.8,18.2-98.8,58.6-154.5,92.7-47.2,28.9-96,58.8-133.7,81.1-64.7,38.1-68.7,37.1-71.9,36.3a5.2,5.2,0,0,1-3.2-2.4c-2.2-3.8.8-7.2,8.5-14.5,5.1-4.7,12.5-11.2,22.6-19.9,18.8-16,44.3-37,69-57.3,26.8-22,57.9-47.6,76.6-63.9-29.5,16.4-84.6,50-131.3,78.5-34.9,21.3-71,43.3-98.2,59.3-46.6,27.5-49,26.9-51.7,26.2a4.8,4.8,0,0,1-3.1-2.3c-2.2-3.9.8-7.1,9.8-15.3,5.8-5.2,14.2-12.3,25.7-21.8,21.2-17.6,49.9-40.6,77.7-62.9,30.2-24.2,63.2-50.6,82.8-67.2-33,18.2-97.6,57.8-152.2,91.2-40.9,25.1-83.3,51-115.3,69.9-54.9,32.4-58.1,31.6-61,30.9a5.3,5.3,0,0,1-3.1-2.4c-2.3-3.9,1-7.4,9.5-15,5.7-5.1,14-11.9,25.4-21.1,21.1-16.9,50.4-39.5,78.6-61.4,35.9-27.8,78.1-60.3,101.3-79.8-31.3,17.6-90.5,53.6-144.4,86.3-45.2,27.5-91.9,55.9-127.9,77.1-61.9,36.3-65.3,35.5-68.2,34.7a4.8,4.8,0,0,1-3.1-2.3c-2.3-4,1.3-7.4,9.7-14.7,5.6-4.9,13.9-11.7,25.3-20.8,21.1-16.8,49.2-38.5,78.9-61.4,37.7-29.1,81.8-63.1,106.6-83.6-32.2,18.2-91.5,54-145.5,86.7-44.3,26.8-90.1,54.5-125,75-60,35.2-62.8,34.5-65.7,33.7a4.4,4.4,0,0,1-3-2.3c-2.2-3.7.4-6.8,9.5-14.9,5.7-5,14-11.9,25.4-21,21.1-16.9,49-38.5,78.6-61.4,37.7-29.1,82.1-63.5,105-82.8-31.5,17.2-95.2,56.2-148.8,89-38.5,23.5-78.2,47.9-108,65.5-51.2,30.2-54.1,29.5-56.9,28.8a5,5,0,0,1-3.1-2.3c-2.2-3.8.6-7,8.5-14.5,5.1-4.9,12.4-11.5,22.5-20.3,18.6-16.2,43.6-37.3,67.7-57.6s50.9-43,67.3-57.5c-29.1,16.1-84.4,50.3-131.3,79.2-37.1,22.9-75.5,46.6-104.8,63.9-50.4,29.9-53.8,29-56.7,28.3a4.9,4.9,0,0,1-3.2-2.4c-2.4-4,1.4-7.4,8.3-13.5,4.8-4.3,11.9-10.3,21.6-18.3,18.1-14.8,42.4-34.2,68.1-54.6,34.7-27.7,78.8-62.9,101.7-82.7-29.6,16.3-87.1,51.6-135.7,81.3-35.9,22-73.1,44.7-101,61.2-48.1,28.4-50.7,27.8-53.6,27a4.8,4.8,0,0,1-3.1-2.3c-2.1-3.6.5-6.5,8.5-13.8,5-4.5,12.2-10.8,22.1-19.1,18.4-15.4,43.7-36.1,68.2-56.2,30.2-24.5,65.3-53.2,85.9-71-29.4,16.4-83.1,49.2-128.8,77-34,20.7-69.1,42.1-95.4,57.6-45.3,26.7-47.6,26.1-50.3,25.4a4.8,4.8,0,0,1-3-2.2c-2.1-3.7,1-7.3,6.8-13.5,4-4.3,9.9-10.2,18-18,14.9-14.3,34.7-32.7,53.8-50.5,15-13.9,31.1-28.9,43-40.3-14.2,8.5-33,20.1-50.5,31-22,13.5-44.6,27.5-62.5,38.1-31.7,18.7-34,18.1-36.5,17.5a4.4,4.4,0,0,1-3.1-2.3c-1.9-3.2.4-5.9,3.8-10.1,2.2-2.7,5.5-6.6,10.1-11.7,8.4-9.5,19.7-21.8,31.6-34.9,13.5-14.8,30.2-33.1,41.1-45.5-15.5,8.9-39.2,23.3-58.3,35-63.6,38.8-66.5,40-69.8,39.1a4.4,4.4,0,0,1-2.9-2.2c-2-3.4.7-6.5,4.9-11.1s7.2-7.6,13-13.5c10.9-10.9,25.3-25,40.6-40s37.3-36.4,50.9-50.3c-13.2,7.8-31.1,18.7-47.7,28.8-76.7,46.6-81.1,48.4-84.9,47.5a4.6,4.6,0,0,1-2.9-2.2c-2.2-3.8,1.2-7.2,6.9-12.8,4-4,9.9-9.5,17.9-16.8,15-13.6,35.6-31.7,55.5-49.2,22.1-19.5,47.7-42,64.2-57.2-14.7,8.6-34.3,20.7-50.5,30.7-56.5,34.7-57.3,34.5-60.4,33.8a5.3,5.3,0,0,1-2.9-2.2c-1.8-3.3.6-6.2,4.2-10.6s6-7.1,11-12.7c9.2-10.2,21.8-23.9,34.1-37.2s28.9-31.3,39.2-42.9c-13.6,7.9-33.1,20-49,29.8-56.3,34.9-61.9,37.7-65.7,36.8a5,5,0,0,1-3-2.3c-2-3.5.5-6.8,7.3-13.8,4.3-4.5,10.6-10.6,19.3-18.8,15.9-15,37-34.1,57.4-52.6,15.4-14,31.9-29,44.4-40.6-11,6.6-24.1,14.7-35.9,21.9-64.6,39.8-72.1,43.6-76.1,42.6a5,5,0,0,1-3-2.3c-1.9-3.3.6-6.3,4.2-10.5s6.2-7.1,11.3-12.5c9.4-10.1,21.9-23.2,35.2-37s32.4-33.7,44.2-46.6c-12.9,7.5-30.8,18.4-46.5,27.9-63.9,38.9-64.8,38.7-67.9,37.9a4.9,4.9,0,0,1-2.9-2.2c-2.1-3.6.9-7,6.2-12.7,3.6-3.9,9-9.3,16.4-16.4,13.7-13.2,32.3-30.4,50.2-47.1s35.9-33.3,49.3-46.2c-15.3,9-36.3,21.7-54.6,32.8-77.6,47.1-81.8,48.8-85.4,47.9a4.6,4.6,0,0,1-2.9-2.2c-2.1-3.6.7-6.6,7.1-13.1,4.1-4.1,10.1-9.9,18.4-17.6,15.2-14.2,35.8-32.8,55.6-50.8,17.5-15.8,37.4-33.8,51.8-47.2-14.5,8.6-33.3,20-49.9,30.1-73.7,44.7-74.6,44.4-77.9,43.6a4.6,4.6,0,0,1-2.9-2.2c-2.1-3.7,1.1-6.9,6.6-12.2,3.7-3.7,9.3-8.8,16.9-15.7,14.1-12.7,32.9-29.3,52.8-46.7,23.2-20.4,52-45.6,70-62.2-17.4,10.1-42,25.1-62.1,37.3-69.3,42.1-70,41.9-73.2,41.1a4.6,4.6,0,0,1-2.9-2.2c-2.2-3.8,1.1-7.4,7-13.5,4.2-4.3,10.4-10.2,18.9-18,15.6-14.3,36.6-33,57-51.1,18.7-16.6,40.1-35.6,54.8-49.2-17.2,10-41.3,24.7-62.3,37.5-77,46.9-81.1,48.6-84.7,47.6a4.4,4.4,0,0,1-2.9-2.2c-2.1-3.6.9-6.7,5.9-11.8,3.5-3.6,8.5-8.5,15.5-15.1,12.9-12.1,30.1-27.8,48.3-44.4,20.1-18.3,45-41,60.9-56.3-12.2,7.3-28,17.1-41.9,25.7-57.7,35.9-64.5,39.4-68.5,38.4a5,5,0,0,1-3-2.3c-2-3.4.8-6.5,5.3-11.5,3.1-3.5,7.7-8.2,13.9-14.6,11.6-11.7,27.4-27.4,42.7-42.5s33.8-33.5,46.1-46.1c-12.2,7.3-28.4,17.4-42.7,26.2-55.9,34.9-62,37.9-66,36.9a4.8,4.8,0,0,1-3-2.2c-1.9-3.4.7-6.3,4.6-10.8,2.7-3,6.7-7.2,12.1-12.7,10.1-10.4,23.6-23.9,37.9-38.1,17.3-17.2,38.7-38.6,51.9-52.5-17.7,10.1-46.1,27.4-68.8,41.3-67.1,40.9-67.8,40.7-71,39.9a4.4,4.4,0,0,1-2.8-2.2c-2.1-3.5.4-6.8,7.2-13.8,4.3-4.6,10.6-10.7,19.2-18.9,15.9-15.1,36.9-34.2,57.1-52.7,14.9-13.6,30.9-28.2,43-39.5-11.8,7-26.1,15.8-38.9,23.6-60.8,37.2-63.9,38.4-67.3,37.5a4.6,4.6,0,0,1-2.9-2.2c-1.9-3.3.6-6.2,4.4-10.7s6.3-7.4,11.5-13.1c9.6-10.5,22.9-24.6,35.7-38.2s29.1-31,39.8-42.7c-14.1,8.2-34.4,20.6-52,31.3-69.9,42.7-73.7,44.2-77.3,43.3a4.4,4.4,0,0,1-2.9-2.2c-2.2-3.7,1.1-6.9,6.5-12.1,3.8-3.7,9.3-8.7,16.9-15.5,14.1-12.5,33.1-29,53.2-46.4,24.3-21,54.4-47.1,73.6-64.6-12.4,7.4-27.8,16.8-41.4,25.2-68,41.6-75.2,45.3-79.2,44.3a4.8,4.8,0,0,1-3-2.2c-2.1-3.6.8-6.8,6.9-13,4-4.1,9.8-9.8,17.8-17.4,14.9-13.9,34.9-32.1,54.3-49.7,17.7-16.2,38-34.6,52.2-48-15.7,9.2-37.1,22.3-55.9,33.8-68.4,41.7-71.8,43.1-75.2,42.2a4.4,4.4,0,0,1-2.9-2.2c-1.9-3.3.5-6.1,4.5-10.8s6.5-7.6,11.8-13.4c9.8-10.7,23.3-25.1,36.3-39s27.8-29.5,38.3-41c-10.2,6.1-22.9,14-34.3,20.9-57.7,35.7-64.4,39.1-68.3,38.1a4.6,4.6,0,0,1-3-2.2c-2-3.5.8-6.7,4.8-11.1s7-7.6,12.7-13.5c10.6-10.8,24.7-24.8,39.7-39.6,16.5-16.3,36.9-36.6,49.9-50.1-15,8.7-36.9,22.1-54.7,33-58,35.6-58.7,35.4-61.8,34.6a4.9,4.9,0,0,1-2.9-2.2c-2.1-3.7.9-7,6.8-13,4-4.1,9.9-9.7,17.9-17.2,14.9-13.8,35.1-32,54.6-49.5s39.1-35.1,53.8-48.8c-14,8.3-32.1,19.3-49.1,29.5-85.5,51.9-90.8,54.1-94.6,53.1a4.6,4.6,0,0,1-2.9-2.2c-2.6-4.6,1.8-8.9,18.3-21.4,10.9-8.3,26.9-19.8,48.9-35,40.8-28.2,96.8-65.8,151-102.1,73.9-49.6,161.8-108.5,201.2-137.8-37.4,20.9-110.2,65.4-171.7,103C764.2,840.7,709.9,874,668,898.7c-71.8,42.3-76.2,41.1-79.5,40.3a4.9,4.9,0,0,1-3.2-2.4c-2.5-4.3,1-8.3,12.9-18.1,7.8-6.4,19.3-15.2,35.1-26.9,29.3-21.6,69.7-50.3,108.7-78s77.7-55.1,107.6-77.1c18.6-13.6,30.6-22.9,38.4-29.3-9.8,5.2-25,13.8-48.6,27.6-35.3,20.9-79.9,48.2-122.9,74.6-38.4,23.5-74.6,45.7-102.4,62.2-47.4,28.2-49.9,27.5-52.6,26.8a5,5,0,0,1-3.1-2.2c-2.3-4.1,1.4-7.3,8.6-13.7,5-4.4,12.3-10.5,22.2-18.7,18.6-15.2,43.5-35,69.8-55.9,33.1-26.3,74.6-59.3,98.6-79.6-22.4,12.9-56.6,33.8-86.2,51.9-26.9,16.5-54.7,33.5-75.9,46-36.8,21.7-38.8,21.2-41.4,20.5a4.6,4.6,0,0,1-3-2.2c-2-3.6.6-6.7,6-12.4,3.5-3.9,8.7-9.1,15.9-16.1,13.2-12.9,31.1-29.8,48.4-46.1,15.2-14.4,32.6-30.8,45.4-43.3L654.4,734c-36.7,22.1-36.8,22.1-39.4,21.4a4.6,4.6,0,0,1-2.8-2.1,4.5,4.5,0,0,1,1.6-6.2l1.4-.5c3.5-1.6,20.7-11.9,34.6-20.3,38.2-22.9,38.4-22.9,41.1-22.2a4.9,4.9,0,0,1,2.8,2.1c2,3.6-1,6.9-5.7,11.8-3.2,3.5-8.1,8.4-14.7,14.9-12.3,12-29.3,28-45.7,43.5-19.2,18.1-41.4,39-55.2,52.8,22.2-12.6,61.2-36.4,94.3-56.7,26.5-16.2,53.9-33,74.6-45.2,36.1-21.2,38.1-20.7,40.6-20.1a4.6,4.6,0,0,1,3,2.3c2.1,3.6.2,6.4-10.5,16-6.1,5.6-15.1,13.2-27.4,23.3-22.8,18.7-53.1,42.8-82.4,66.2-27.5,21.8-57.2,45.4-76.7,61.5,29.3-16.8,78.7-47,123.9-74.8s90-55.1,125.8-76.3c62-36.4,66-35.4,69.1-34.6a5.1,5.1,0,0,1,3.3,2.4c2.7,4.6-2.3,9.5-13.5,18.8-8.2,6.7-20.2,16-36.7,28.2-30.6,22.6-72.3,52.2-112.6,80.8-51.4,36.5-112.6,79.9-139.8,101.6,11.3-5.9,29.5-16,58.9-33.4,41.4-24.5,94.5-56.9,145.8-88.3,49.8-30.5,96.8-59.3,133.4-80.9,62.2-36.8,65.6-35.9,68.6-35.2a5.2,5.2,0,0,1,3.2,2.4c2.4,4.1-2,8.1-5,10.8s-7.6,6.5-13.9,11.3c-11.4,8.7-28,20.5-50.8,36.3-42.2,29.3-99.7,67.9-155.3,105.1C729.2,893,655.7,942.3,612.9,972.8c15.8-9.4,33.7-20.2,49.1-29.6,73.9-44.8,74.7-44.6,77.9-43.8a4.4,4.4,0,0,1,2.8,2.2c2.2,3.7-1.2,7.2-6.3,12.4s-9.2,9-16.8,16c-13.9,12.9-33.1,30.2-51.7,46.9s-42.9,38.5-58.6,53.2c10-6,22-13.3,33.3-20.3,65.7-40.2,73.3-44.1,77.3-43.1a5.1,5.1,0,0,1,2.9,2.3c2,3.4-.6,6.7-5.4,12.1-3.3,3.7-8.1,8.8-14.7,15.6-12.1,12.5-28.5,28.7-44.3,44.3-14.1,13.9-30.1,29.9-41.4,41.4,13-7.6,30.3-18.3,44.5-27.1,51.9-32.1,54.4-33,57.7-32.2a4.4,4.4,0,0,1,2.9,2.2c1.9,3.3-.5,6.1-4.5,10.9-2.7,3.2-6.6,7.6-12,13.6-10,10.9-23.6,25.4-36.8,39.4s-27.6,29.4-38,40.8c14.3-8.4,34.6-20.8,52.2-31.5,75.2-45.9,79.7-47.7,83.4-46.8a4.5,4.5,0,0,1,2.9,2.3c2.1,3.6-1,6.8-6.1,12s-8.8,8.7-16,15.4c-13.4,12.5-31,28.6-49.7,45.6-20.9,19-45,40.9-60.6,55.8,15.2-8.9,35.9-21.6,53-32.1,63.4-38.8,66.6-40.1,70-39.2a4.9,4.9,0,0,1,2.9,2.2c2,3.5-.2,6.5-8.2,14.4-4.9,4.8-12,11.3-21.7,20-17.9,16.1-41.7,36.7-64.6,56.6-18.6,16-38.5,33.3-53.2,46.3,13.8-8.2,31-18.7,46.2-28,67.6-41.2,71-42.6,74.5-41.7a4.9,4.9,0,0,1,2.9,2.2c1.9,3.4-.7,6.4-4.6,11.1s-6.7,7.8-12.2,13.8c-10.1,11.1-23.8,25.7-37.1,39.9s-26.9,28.5-37,39.6c12.5-7.3,29.4-17.7,44.3-26.8,61.4-37.6,64.6-38.8,68-38a4.7,4.7,0,0,1,2.9,2.2c2.1,3.6-.7,6.5-5.4,11.3-3.2,3.2-7.8,7.6-14.1,13.6-11.8,11.1-27.8,25.7-44.7,41.1-21.5,19.7-48.3,44.1-65.2,60.4,12.7-7.5,29.3-17.6,44.7-27,77.6-47.3,86.4-51.9,90.7-50.8a4.8,4.8,0,0,1,3,2.2c2,3.5-.7,6.8-5.6,12.4-3.4,3.9-8.3,9.1-15,16.1-12.5,12.8-29.1,29.4-45.1,45.3-13.5,13.5-28,27.9-38.4,38.6,12-7.2,27.8-17,41.7-25.6,56.4-35.1,63-38.5,67-37.5a5,5,0,0,1,3,2.3c2,3.4-.8,6.5-5.4,11.6-3.1,3.4-7.7,8.2-14,14.6-11.7,11.9-27.6,27.6-43,42.9s-33.4,33.1-45.7,45.6c12.7-7.5,29.5-17.9,44.3-27.1,57.4-35.7,63.6-38.9,67.6-37.9a4.4,4.4,0,0,1,3,2.3c2.1,3.6-.9,7-6.8,13.1-4,4.2-9.8,9.9-17.9,17.5-14.8,14-34.8,32.2-54.1,49.9-16.9,15.3-36.1,32.9-49.8,45.8,16-9.4,37.8-22.7,56.9-34.3,81.2-49.4,85.9-51.4,89.6-50.4a4.8,4.8,0,0,1,3,2.2c2.2,3.8-1.2,7.2-6.3,12.4-3.7,3.7-9.1,8.8-16.6,15.7-13.8,12.7-32.1,29-51.5,46.2s-46.5,41.2-63.2,56.9c13-7.7,29.9-18,45.7-27.6,76.7-46.7,84.8-50.9,88.9-49.8a4.6,4.6,0,0,1,2.9,2.2c2.2,3.8-.9,7.2-7.7,13.9-4.5,4.5-11.2,10.7-20.3,19-16.8,15.2-39.3,34.9-61,54-18.7,16.4-38.8,34-53.4,47.2,14-8.3,31.6-18.9,47.2-28.4,72.3-43.8,75.8-45.3,79.3-44.4a4.9,4.9,0,0,1,2.9,2.2c2,3.6-.9,6.6-6.4,12-3.6,3.7-9,8.8-16.3,15.6-13.6,12.6-31.6,28.9-50.6,46.1-21.1,19.1-45.4,41.1-61.5,56.2,16.2-9.5,38.4-23,57.9-34.8,73.9-44.8,77.5-46.3,81-45.4a4.7,4.7,0,0,1,2.9,2.1c2.1,3.7-1.2,7.2-5.7,12s-8.4,8.5-15.2,15.1c-12.6,12.1-29.2,27.5-46.9,43.9s-40.4,37.6-54.8,51.6c12.3-7.3,28.1-16.9,42.1-25.4,64.8-39.4,65.7-39.2,68.8-38.4a4.7,4.7,0,0,1,2.9,2.2c1.9,3.3-.5,6.5-4.9,11.8-3,3.5-7.3,8.4-13.3,14.8-11,11.9-25.8,27.3-40.1,42.3-12.4,12.8-26.5,27.5-36.5,38.2,14.8-8.5,36.3-21.7,53.7-32.4,59.4-36.5,62.2-37.6,65.6-36.8a4.6,4.6,0,0,1,2.9,2.2c2.1,3.6-.8,6.5-5.6,11.4-3.3,3.3-8,7.9-14.6,14-12.2,11.4-28.6,26.3-46,42.1-22,20-49.4,44.8-66.3,61.1,11.8-7.1,26.9-16.4,40.2-24.7,59.2-36.7,66.2-40.2,70.2-39.2a5.1,5.1,0,0,1,2.9,2.3c2,3.3-.5,6.3-4.3,11-2.7,3.2-6.5,7.7-11.8,13.6-9.8,10.9-23.1,25.3-35.9,39.2s-25,27.1-34.6,37.8c10.6-6.3,24.4-14.8,37.3-22.7,65.2-40.1,73.4-44.3,77.4-43.2a4.6,4.6,0,0,1,3,2.2c2.2,3.7-.8,6.9-7.1,13.2-4.2,4.2-10.4,10-18.9,17.7-15.6,14.2-36.9,32.9-57.5,51s-43.8,38.6-59.7,53.2c16.3-9.6,38.4-23,56.6-34.1,68.2-41.5,69-41.3,72.2-40.5a4.4,4.4,0,0,1,2.8,2.2c2,3.4-.5,6.6-5.7,12.3-3.4,3.9-8.4,9.1-15.3,16.1-12.7,12.8-29.7,29.5-46.2,45.5-13.7,13.5-29.3,28.7-40.7,40.2l44-26.6c71.2-43.5,75.4-45.2,79.1-44.2a4.6,4.6,0,0,1,2.9,2.2c1.9,3.3-.6,6.5-4.5,11.3s-6.8,8.1-12.3,14.3c-10.1,11.5-23.6,26.3-36.8,40.7-11.4,12.6-24.6,27-33.6,37.2,19-10.6,52.4-31.3,78.8-47.6,67.4-41.7,74.1-45.1,78-44.1a4.4,4.4,0,0,1,2.9,2.2c2.1,3.5-.8,6.6-5.3,11.2-3,3.2-7.5,7.6-13.7,13.6-11.5,11-27.1,25.4-43.5,40.7-21.6,20.1-48.7,45.2-64.2,60.7,26.5-14.7,79.2-46.8,123.6-73.8,35.9-21.9,73-44.5,101.3-61.2,48.9-28.8,51.5-28.1,54.3-27.4a5,5,0,0,1,3,2.3c2.3,4-1.1,7.4-9.1,14.7-5.3,4.9-13.1,11.6-23.8,20.6-19.8,16.7-46.6,38.6-72.5,59.7s-58.7,48-78.2,64.7c29.4-16.6,81.9-48.8,126.7-76.1,37-22.7,75.3-46.2,104.5-63.4,50.3-29.7,53.3-28.9,56.1-28.2a4.8,4.8,0,0,1,3.1,2.3c2.1,3.6.2,6.6-10.3,16.1-6.1,5.6-15.1,13.2-27.3,23.3-22.7,18.7-52.7,42.7-81.8,65.9s-59.3,47.3-78.2,63c30.3-16.7,86.8-51.6,134.6-81.1,36.2-22.3,73.7-45.4,102-62.2,48.7-28.9,51.9-28.1,54.7-27.4a5.2,5.2,0,0,1,3.2,2.4c2.2,3.8-1.2,7-7.3,12.8-4.2,4-10.4,9.5-18.9,16.9-15.8,13.8-36.9,31.5-59.2,50.3-27.5,23.3-62.3,52.6-81.7,70.1,30.1-16.6,89.9-53.2,140.5-84.1,40-24.6,81.5-50,113.1-68.6,54.4-32.1,57.7-31.3,60.5-30.5a5.1,5.1,0,0,1,3.2,2.3c2.2,3.9-.5,7.3-10.4,16.1-6.3,5.6-15.3,13.1-27.8,23.1-23.1,18.6-54.4,42.8-84.6,66.1-32.4,25.1-70.3,54.4-92.4,72.6,35.2-19.6,104.2-61.3,162.4-96.5,43.1-26.1,83.8-50.7,115.5-69.3,54.2-31.8,56.5-31.2,59.2-30.5a4.6,4.6,0,0,1,3,2.2c2.3,3.9-.5,7.2-11,16.4-6.6,5.8-16.1,13.7-29.2,24.1-24.3,19.4-56.8,44.5-88.4,68.8s-70.4,54.4-92.7,72.5c36-19.8,107.5-63.2,167.8-99.9,42.4-25.7,82.4-50,113.4-68.3,52.9-31.2,55.4-30.6,58.2-29.9a5.3,5.3,0,0,1,3,2.3c2.4,4.1-1.3,8-10.2,16-6.2,5.5-15.1,13-27.4,22.9-22.8,18.3-53.8,42.2-83.7,65.3-33.4,25.9-72.6,56.1-94.3,74.2,32.3-17.8,96.1-56.9,150-89.9,41.5-25.4,84.4-51.7,117-70.9,55.8-32.9,59.1-32.1,62-31.4a5.2,5.2,0,0,1,3.2,2.4c2.1,3.7-.6,6.6-8.8,14-5.1,4.6-12.5,10.9-22.8,19.4-19,15.7-44.2,35.9-70.9,57.3-32.5,26-70.4,56.4-92.5,75.1,28.7-16.2,79.1-46.9,122-73.1,36.4-22.2,74-45.1,102.7-62,49.4-29.1,52.1-28.4,54.9-27.7a4.7,4.7,0,0,1,3,2.3c2.2,3.7-.7,6.9-8.1,13.9-4.8,4.4-11.7,10.6-21.3,18.7-17.8,15.2-42.4,35.3-66.1,54.9-30.4,25-66.2,54.4-85,71.2,10.2-5.4,26.6-14.5,52.6-29.9,37.2-22,84.8-51.1,130.7-79.2s86.3-52.9,118.9-72.2c55.6-32.9,58.6-32.1,61.5-31.4a5.5,5.5,0,0,1,3.2,2.3c2.3,4.2-.8,7.9-12.2,17.7-7.2,6.2-17.8,14.8-32.4,26.1-26.9,20.9-62.9,48-97.8,74.1s-75.9,56.8-99.4,75.4c25.6-14.6,66.4-39.7,101.5-61.3,29-17.9,56.5-34.8,78-47.6,37.3-22.1,39.5-21.5,42.1-20.9a5.6,5.6,0,0,1,3.1,2.3c2,3.5-.6,6.6-6.3,12.7-3.7,4-9.1,9.4-16.5,16.7-13.6,13.4-32,30.8-49.7,47.6-14.6,13.9-31.1,29.5-43.4,41.5,8.4-5,18-10.9,26.6-16.2,50-30.6,52.4-31.5,55.6-30.7a4.4,4.4,0,0,1,2.8,2.2,4.3,4.3,0,0,1-1.6,6.1,4.6,4.6,0,0,1-2.2.6c-5.2,2.1-29.9,17.2-49.9,29.5S1923,1959.9,1915.3,1964.4Zm85.7-55.6.3.4Zm0-.1h0Zm0,0Zm0,0Zm0,0ZM619.9,748.7h0Zm0,0Zm0,0Zm0,0Zm0-.1h0Zm0,0Zm-.1,0h0Zm0,0Zm0-.1h0Zm0,0Zm0,0Zm0,0Z"/></clipPath><clipPath id="clip-path-5"><path class="cls-4" d="M1810.9,863.2c-16.5,9.5-20.3,10.7-22.8,10.1a5.7,5.7,0,0,1-3-2.3c-2-3.6.6-6.9,7.6-14.1,4.6-4.6,11.2-10.9,20.2-19.2,16.6-15.4,38.7-35.1,60-54.1,16.9-15.2,35.2-31.5,48.4-43.6-17.3,10.1-40.9,24.5-60.4,36.3-66.3,40.3-66.9,40.2-70.1,39.4a4.8,4.8,0,0,1-2.8-2.2c-2-3.4.5-6.3,4.8-11,2.8-3.2,6.9-7.6,12.6-13.5,10.5-10.8,24.4-24.8,39.1-39.6,16.4-16.5,35.3-35.5,47.6-48.5-14.8,8.6-36.1,21.7-53.4,32.3-54.9,33.7-55.5,33.5-58.6,32.7a4.3,4.3,0,0,1-2.8-2.1c-1.9-3.3.5-6.3,4.2-10.9,2.5-3.1,6.2-7.5,11.4-13.2,9.4-10.7,22.4-24.8,34.9-38.4s26.5-28.9,36.2-39.9c-13.2,7.7-32,19.3-48.3,29.4-58.6,36.1-64.4,39.1-68.2,38.1a4.8,4.8,0,0,1-3-2.2c-1.8-3.2.4-5.9,4.2-10.4,2.4-3,6-7.1,10.9-12.6,9.1-10.1,21.1-23.1,33.8-36.9s28.9-31.3,39.4-43.1c-9.7,5.8-22,13.6-32.9,20.4-48.1,30.1-53.4,32.7-57.2,31.8a5.6,5.6,0,0,1-3.1-2.3c-1.8-3.2.4-6,4.2-10.7,2.4-3.2,6.1-7.5,11-13.2,9.2-10.7,21.7-24.7,33.7-38.2s23.6-26.5,32.5-36.9c-13.9,8.1-34.1,20.4-51.7,31.1-63.6,38.7-64.4,38.5-67.5,37.7a4.4,4.4,0,0,1-2.9-2.2c-1.7-3,.2-5.8,2.9-9.8s4.6-6.5,8.3-11.5c7-9.2,16.4-21.4,25.6-33.2s18.8-24.3,25.9-33.7c-11.9,7-29.3,17.7-44.5,27-57.6,35.5-63.9,38.7-67.6,37.7a4.8,4.8,0,0,1-3-2.2c-1.9-3.3.5-6.2,4.5-11.2,2.6-3.3,6.5-7.8,11.9-13.9,9.8-11.3,23-25.9,35.8-40s24.7-27.3,33.7-37.6c-20,11.2-56.2,33.5-86.9,52.5-23.6,14.5-47.9,29.5-66.3,40.4-32.1,19.1-34.3,18.6-36.7,18a5.6,5.6,0,0,1-3.1-2.3,4.6,4.6,0,0,1,1.7-6.2,4.5,4.5,0,0,1,3-.5c8.6-2.7,57.3-32.8,96.6-57.1,24.4-15,49.5-30.5,68.8-41.9,33.6-20,35.8-19.4,38.4-18.8a5.6,5.6,0,0,1,3.1,2.3c1.8,3.2-.3,5.8-3.9,10.1s-5.5,6.7-10.1,11.9c-8.4,9.6-19.7,22-31.6,35.2s-28.9,32-39.5,44.2c13-7.6,31.5-19,46.5-28.3,56.8-34.9,59.8-36,63.1-35.2a4.8,4.8,0,0,1,3,2.2c1.7,3-.2,5.7-2.8,9.6s-4.5,6.2-8.1,11.1c-6.7,8.9-15.9,20.7-24.8,32.2s-19.7,25.3-26.9,35.1c12.7-7.4,32.1-19.2,48.7-29.3,66.6-40.5,70-41.9,73.4-41a4.4,4.4,0,0,1,2.9,2.2c1.8,3.1-.3,5.8-3.8,10.2s-5.6,6.9-10.2,12.2c-8.6,9.9-20.3,23.1-31.7,35.9s-26.7,30.1-36.4,41.3c10.6-6.3,24.7-15.1,36.3-22.4,46.5-29.1,51.3-31.4,55-30.5a5.1,5.1,0,0,1,3,2.2c1.9,3.3-.6,6.3-4.6,11.1-2.6,3.3-6.6,7.8-12,13.8-9.9,11.2-23.4,25.8-36.4,39.9s-25.3,27.4-34.9,38.1c12.7-7.5,30.4-18.4,45.8-27.9,59.5-36.7,65.9-39.9,69.7-38.9a4.8,4.8,0,0,1,3,2.2c1.9,3.2-.5,6.2-4.1,10.6s-6.1,7.3-11.1,12.9c-9.2,10.4-21.9,24.2-34.1,37.5s-26.5,28.8-36.4,40c10.3-6.1,23.6-14.2,35.9-21.9,64.6-39.6,72.1-43.4,76.2-42.4a5.1,5.1,0,0,1,2.9,2.3c2.1,3.5-.7,6.6-5.3,11.8-3.1,3.6-7.7,8.5-14.1,15.1-11.6,12.2-27.4,28-42.7,43.4-13.2,13.3-28.3,28.5-39.3,39.9,12.6-7.5,29.2-17.6,44.7-27,19.8-12.1,40.3-24.5,56.3-34,28.6-16.7,30.2-16.3,32.5-15.7a4.4,4.4,0,0,1,2.9,2.2c2.1,3.6-.9,6.6-5.9,11.6-3.3,3.3-8.3,8.1-15.2,14.3-12.7,11.7-29.9,27.1-48.1,43.3-23.5,21-52.9,47.3-70.5,64,16.8-9.8,41.2-24.8,62.5-37.9,74.7-46.1,83.3-50.5,87.6-49.4a4.6,4.6,0,0,1,1.4,8.4,4.8,4.8,0,0,1-2.8.6c-7.6,2.5-48.5,27.7-81.5,48.1S1823.4,855.9,1810.9,863.2Zm142.8-89.4Zm0,0Zm0,0Zm0,0Zm0,0Zm0,0Zm-.1,0Zm0,0Zm0-.1h0ZM1547.2,616.9Zm0-.1h0Zm0,0Zm503.7,657.5c-5.6,3.2-6.6,3.2-8.3,2.8a5.2,5.2,0,0,1-2.9-2.2c-1.9-3.4.5-6.5,5.4-12.3,3.3-3.8,8-9,14.6-15.9,12-12.8,27.9-29.1,43.2-44.9,11.6-11.8,23.9-24.5,33.3-34.3-11.7,6.9-26.6,16.1-39.8,24.2-63.7,39.2-71.1,42.9-75.1,41.9a4.8,4.8,0,0,1-3-2.2c-1.6-2.9.2-5.5,2.6-9.2s4.1-5.7,7.5-10.2c6.1-8.3,14.4-19,23.2-30.4s21.1-27.4,28.8-37.9c-12.8,7.4-32.5,19.4-49.4,29.7-63,38.2-63.8,38-66.9,37.2a4.5,4.5,0,0,1-2.9-2.1c-1.9-3.3.4-6.3,4.4-11.3,2.7-3.3,6.7-7.8,12.1-13.9,10.1-11.1,23.7-25.6,36.9-39.7s26-27.8,35.7-38.6c-15.2,8.9-37.9,22.7-57.6,34.6-76.5,46.5-80.6,48.2-84.2,47.2a4.6,4.6,0,0,1-2.9-2.2c-2-3.4.6-6.3,5.3-11.7,3.1-3.5,7.7-8.4,14-15,11.5-12.1,27.1-27.9,42.2-43.3,13.1-13.3,28-28.5,38.9-39.9-14.8,8.7-35.4,21.1-53.3,32-72.6,44.1-73.5,43.8-76.8,43a4.4,4.4,0,0,1-2.8-2.2c-2-3.4.6-6.3,5-11,2.9-3.2,7.2-7.6,13.1-13.5,10.9-10.9,25.5-25.1,40.9-40.2,17.6-17.1,39.4-38.3,53.3-52.5-17.2,9.9-43.1,25.6-64,38.4-68.3,41.5-69,41.3-72.2,40.5a4.4,4.4,0,0,1-2.8-2.2c-2-3.4.6-6.7,5.3-12.1,3.2-3.6,7.9-8.6,14.3-15.3,11.9-12.3,27.9-28.3,43.4-43.7s31.9-31.8,43.1-43.4c-25,13.8-73.7,43.5-114.9,68.7-29.8,18.2-60.7,37.1-83.9,50.8-40.1,23.6-42.2,23.1-44.8,22.4a4.8,4.8,0,0,1-3-2.2c-2.2-3.9.9-7,8.2-13.7,4.8-4.4,11.7-10.4,21.4-18.4,17.8-15,41.5-34.2,66.7-54.6,33.2-27,72.4-58.7,92.8-76.6-28.7,15.6-86.6,51.4-135.3,81.5-36.9,22.9-75.1,46.5-104.2,63.8-50.1,29.7-53.7,28.8-56.5,28.1a5.4,5.4,0,0,1-3.3-2.4c-2.2-3.8,1.4-7.2,3.8-9.5s5.7-5.1,10.3-8.8c8.4-6.7,20.6-15.9,37.4-28.2,31-22.9,73.6-53.2,114.7-82.5,54.2-38.6,118.5-84.4,148.2-107.6-10.3,5.5-25.8,14.2-49.2,28.1-37.2,22.1-85.4,52-132.1,80.8s-96,59.4-133,81.4c-63.2,37.5-67.6,36.4-70.8,35.6a5.5,5.5,0,0,1-3.4-2.5c-2.3-4,1.7-7.7,4.1-9.9s6.3-5.4,11.5-9.4c9.3-7.1,22.9-17,41.7-30.1,35-24.4,82-56,131.7-89.5,53.1-35.7,108.1-72.8,150.4-102.3,35.5-24.8,54.2-38.9,64-46.9-12.8,6.1-37.4,19.3-84,46.8-52.6,31-118.9,71.5-182.9,110.7-55.6,34-108.1,66.1-148.1,89.9-67.7,40.1-71.2,39.2-74.2,38.5a4.8,4.8,0,0,1-3.1-2.4c-2.1-3.5.6-6.8,5.9-12.8,3.6-4,8.8-9.6,16-16.9,13.2-13.6,30.6-30.8,47.4-47.4,12.6-12.4,26-25.7,36-35.9-14.4,8.5-34,20.5-51.2,31-68.5,41.9-72.2,43.4-75.8,42.5a4.6,4.6,0,0,1-2.9-2.2c-1.7-2.9.1-5.4,2.7-9.3s4.2-6.1,7.6-10.8c6.3-8.7,15.1-20.3,23.5-31.5s19.1-25.3,26.1-35l-.9.5c-14,8.1-35.8,21.4-54.5,32.8-69.2,42.3-73,43.8-76.5,42.9a4.7,4.7,0,0,1-2.9-2.2c-2-3.5.6-6.3,5.1-11,2.9-3.2,7.2-7.5,13.2-13.4,11-10.8,25.8-25,41.5-40,18.6-17.7,41.6-39.7,56.6-54.7-11.8,7-26.8,16.3-40.1,24.4-66.4,40.7-70.4,42.2-74,41.3a4.8,4.8,0,0,1-3-2.2c-2-3.5.8-6.6,5.3-11.8,3.1-3.5,7.6-8.4,13.9-15,11.5-12,27.1-27.8,42.1-43.1,13.6-13.7,29-29.3,40-40.8-14.6,8.5-35.1,21-53,31.9-63.2,38.6-66.1,39.8-69.5,38.9a4.7,4.7,0,0,1-2.9-2.1c-1.7-3,.2-5.6,3.4-9.9,2-2.8,4.9-6.6,9-11.7,7.5-9.5,17.9-22.1,27.8-34.3s21.1-25.7,29.1-35.8c-9.6,5.7-22,13.4-33,20.2-53.2,32.9-59.5,36-63.2,35.1a5,5,0,0,1-3-2.3c-2-3.3.6-6.3,4.4-10.7s6.4-7.2,11.6-12.8c9.8-10.4,22.7-23.7,36.4-37.8,15.1-15.6,33.8-34.8,45.7-47.7h-.1c-15,8.6-37.1,22.1-55,33.1-57.5,35.3-58.3,35.1-61.3,34.3a4.6,4.6,0,0,1-2.9-2.1c-2.2-3.8,1.1-7.3,7.5-13.7,4.5-4.4,10.9-10.4,19.9-18.3,16.5-14.8,38.9-34.1,60.6-52.8s44.1-38.1,60.5-52.8c-15.8,9.3-36.8,22-56.3,33.9-23.7,14.3-48.2,29.2-67.3,40.4-33.6,19.7-35.3,19.3-37.7,18.7a4.6,4.6,0,0,1-3-2.2c-2.4-4.2,1.9-8.1,5.1-11s7.9-6.6,14.5-11.5c11.7-8.8,28.9-20.9,52.5-37.1,43.9-30,104.1-69.8,162.3-108.3s116.2-77,160.9-107.4c28-19.2,46.1-32,57.8-40.6-38.3,21.1-115.3,68.2-185.2,111-56,34.2-113.9,69.6-158.5,95.9-76.2,44.9-80.9,43.7-84.2,42.9a5,5,0,0,1-3.3-2.5c-2.6-4.4.6-8.5,16.3-20.8,10-7.8,24.6-18.5,44.8-32.6,37.3-26.2,88.8-60.8,138.6-94.3s99.5-67,137.7-93.7c28.8-20,45.3-32.3,54.7-39.9-11.4,5.8-30.9,16.5-64.2,36.1-42.8,25.3-96.7,58.3-148.8,90.3-46.2,28.3-89.9,55.1-123.4,75-56.8,33.7-59.9,32.9-62.8,32.2a5.6,5.6,0,0,1-3.1-2.3c-2.4-4.2,1.2-7.6,12.8-16.8,7.5-6,18.5-14.3,33.6-25.4,28.1-20.5,65.7-47.3,105.5-75.6,57.8-41.1,126.2-89.7,159.3-115.5-30.1,16.9-82.8,49.1-127.6,76.6-37,22.7-75.3,46.1-104.4,63.2-50,29.5-52.9,28.8-55.7,28.1a5.3,5.3,0,0,1-3.1-2.4c-2.2-3.8.9-7.3,9.1-14.8,5.3-4.9,13.1-11.7,23.8-20.7,19.9-16.7,46.8-38.5,72.8-59.6,24-19.4,51.4-41.6,70.9-58l-16.9,10.2c-47.6,28.8-48,28.7-50.8,27.9a4.6,4.6,0,0,1-2.8-2.1,4.4,4.4,0,0,1,1.6-6.1,2.9,2.9,0,0,1,1.7-.6c4.5-1.9,27.2-15.7,45.6-26.8,49.6-29.9,50-29.8,52.9-29.1a4.4,4.4,0,0,1,2.8,2.2c2.3,3.9-1.1,7.3-8.4,14-5,4.6-12.2,10.9-22.2,19.2-18.5,15.5-44,36.2-68.7,56.2-31.1,25.2-67.5,54.7-87.8,72.3,29.6-16.3,86.6-51.2,134.9-80.8,36.4-22.2,74-45.3,102.5-62.1,48.9-28.9,51.7-28.1,54.4-27.4a4.4,4.4,0,0,1,3.1,2.3c2.3,3.9-1.5,7.6-4,10.1s-6.4,5.7-11.6,9.9c-9.3,7.6-22.9,17.9-41.5,31.6-34.4,25.4-80.3,58-124.7,89.5s-94.4,67.2-123.5,89c35.2-20.1,95.6-57.1,151-91.1,53.3-32.7,108.4-66.5,151.7-92,74.4-43.7,79.1-42.5,82.6-41.7a5.6,5.6,0,0,1,3.3,2.5c2.6,4.5-.9,9-17,21.7-10.5,8.2-25.8,19.4-46.8,34.2-39,27.3-92.1,63.1-143.5,97.7-47.4,31.8-96.3,64.8-133,90.3-25.3,17.7-40.7,29-50,36.3,11.9-6.1,31.6-17,64.2-36.3,44.1-26.1,100.7-60.6,155.4-94.1,52.9-32.4,103-63,141.9-86,66.1-39.1,69.7-38.2,72.8-37.4a4.8,4.8,0,0,1,3.2,2.3c2.4,4.3-2,8.3-5.3,11.2s-8.2,6.9-15,12c-12.2,9.2-30,21.8-54.5,38.5-45.4,31.1-107.2,72-166.9,111.6-55.7,36.8-113.2,74.9-156.4,104.3-17.1,11.7-30.4,20.9-40.7,28.2,19-11.2,41.8-25,61-36.7,79.5-48.2,83-49.7,86.5-48.8a4.7,4.7,0,0,1,2.9,2.1c2.1,3.7-.8,6.9-7.1,13-4.1,4.1-10.2,9.7-18.6,17.1-15.4,13.8-36.7,32.2-57.4,50-22.3,19.2-47.9,41.4-65.3,57.1,9.5-5.8,20.6-12.5,31-19,65.2-39.9,72.8-43.8,76.7-42.7a4.6,4.6,0,0,1,3,2.2c1.9,3.3-.5,6.5-5,11.7-3,3.6-7.4,8.4-13.4,14.9-11.2,11.9-26.2,27.4-40.7,42.3-12.7,13.2-27.3,28.2-37.6,39.1,11.8-6.9,27.3-16.5,40.2-24.5,48-29.7,50.2-30.5,53.4-29.7a4.6,4.6,0,0,1,2.9,2.2c1.7,3-.2,5.6-3.4,10-2,2.8-5,6.7-9.2,11.9-7.6,9.6-18,22.3-28.1,34.6s-20.9,25.5-28.8,35.5c13.2-7.7,32.6-19.5,49.3-29.7,69.4-42.4,73.5-44,77.1-43.1a4.6,4.6,0,0,1,2.9,2.2c1.9,3.4-.6,6.2-4.8,11-2.7,3.1-6.8,7.5-12.4,13.3-10.4,10.8-24.1,24.7-38.6,39.5s-34.3,34.6-46.4,47.5c14.3-8.4,34.4-20.7,50.9-30.8,59.3-36.3,62.1-37.4,65.4-36.6a5.3,5.3,0,0,1,2.9,2.2c2,3.6-.6,6.7-6.4,13-3.8,4.1-9.3,9.8-16.9,17.3-14,13.8-32.6,31.5-50.6,48.7-14.3,13.7-29.7,28.4-41.1,39.5,14.2-8.3,33.1-19.9,49.8-30,66.8-40.8,70.2-42.2,73.6-41.3a4.4,4.4,0,0,1,2.9,2.2c1.7,2.9-.1,5.6-2.8,9.6s-4.4,6.4-8,11.4c-6.7,9.1-15.7,21.2-24.5,32.8s-17.8,23.7-24.5,32.8c14.4-8.2,37.6-22.4,57.5-34.6,69.3-42.3,73.1-43.8,76.7-42.9a4.6,4.6,0,0,1,2.9,2.2c2,3.3-.6,6.2-4.5,10.5-2.6,2.8-6.4,6.8-11.7,12.2-9.8,10-23.1,23.1-37.1,37-19.6,19.4-44.4,43.9-57.9,58.2,34-17.8,122.9-72.2,202.9-121.1,65.3-40,132.8-81.3,185.9-112.5,91-53.6,96.7-52.1,100.5-51.2a5.6,5.6,0,0,1,3.4,2.6c2.5,4.3,0,8.5-19.1,23.4-11.7,9.2-28.7,21.6-52.1,38-43.1,30.2-100.7,69-156.4,106.5-64.6,43.5-135.7,91.4-168.2,115.6,10.1-5.4,24.9-13.8,46.5-26.6,36.6-21.8,84.2-51.3,130.2-79.7,47.8-29.6,97.2-60.2,134.8-82.5,64.4-38.1,68.8-37,72.1-36.2a5.5,5.5,0,0,1,3.4,2.5c2.2,3.8-1.4,7.2-3.8,9.5s-5.7,5.1-10.4,8.9c-8.5,6.7-20.8,16.1-37.7,28.5-31.3,23-74,53.5-115.4,82.9-51.8,36.9-112.9,80.5-143.7,104.2,30.6-17.1,85.1-50.9,131.6-79.6,36.5-22.6,74.2-46,102.9-63,49.3-29.3,52.6-28.4,55.6-27.7a5.2,5.2,0,0,1,3.2,2.4c2.3,3.9-.8,7.3-9.3,15.2-5.6,5.2-13.7,12.2-24.8,21.5-20.5,17.3-48.1,39.6-74.8,61.3s-55,44.6-73.7,60.5c25-14.5,64.7-38.7,98.8-59.5,31.4-19.2,63.8-39,88.5-53.5,42.9-25.3,45.4-24.7,48-24a4.4,4.4,0,0,1,3,2.3c2,3.4-.8,6.6-4.7,11.1s-6.9,7.5-12.6,13.4c-10.5,10.8-24.5,24.7-39.3,39.5s-34.7,34.5-47.4,47.8c13.2-7.8,31.4-18.9,48.3-29.1,78.9-48.1,83.9-50,87.6-49.1a4.6,4.6,0,0,1,2.9,2.2c2,3.5-.5,6.5-5.9,12.5-3.5,3.9-8.7,9.2-15.7,16.3-13,13.1-30.4,30-47.2,46.4-13.8,13.4-29.4,28.6-40.9,40.1,14.4-8.5,33.6-20.1,50.5-30.4,71.2-43.2,74.7-44.6,78.1-43.7a4.4,4.4,0,0,1,2.9,2.2c1.9,3.3-.4,6-4.8,10.8-2.7,3.1-6.8,7.5-12.3,13.3-10.3,10.7-24,24.6-38.4,39.3s-33.9,34.5-46.1,47.4c16.2-9.4,40-23.9,60.7-36.4,72.9-44.3,76.4-45.7,79.9-44.9a5.3,5.3,0,0,1,2.9,2.2c1.9,3.3-.7,6.4-4.1,10.7s-6.2,7.1-11.2,12.7c-9.2,10.2-21.5,23.3-34.4,37.1s-29.2,31.2-39.8,43c12.5-7.4,29.8-17.8,44.9-27,63.8-38.8,64.7-38.6,67.8-37.8a4.9,4.9,0,0,1,2.9,2.2c1.7,3-.3,6-3.1,10.1s-4.8,6.9-8.7,12.2c-7.3,9.8-17.1,22.4-26.5,34.7-8.1,10.5-17.3,22.5-23.8,31.2,14.4-8.2,38-22.7,56.7-34.2,58.5-36,61.3-37.1,64.7-36.2a4.6,4.6,0,0,1,2.9,2.2c1.9,3.2-.5,6-4.2,10.2s-6,6.7-11,12c-9.2,9.6-21.5,22.4-34.6,35.8-15.2,15.5-33.7,34.5-46.5,48.2h0c23-14.4,24.1-14.7,26.7-14a4.6,4.6,0,0,1,2.9,2.2,4.4,4.4,0,0,1-1.6,6.1,3.9,3.9,0,0,1-2,.6c-3.1,1.4-13.5,7.9-21.2,12.7S2054.4,1272.3,2050.9,1274.3Zm33.8-25.3Zm0,0Zm0,0ZM1386,531.6a5.4,5.4,0,0,1,1.5,1.5A3.6,3.6,0,0,0,1386,531.6Z"/></clipPath></defs><path class="cls-2" d="M1337.9,1590.5c-27.8,16.1-30.3,15.5-32.7,14.9a5.2,5.2,0,0,1-3.2-2.4c-2.3-3.9.8-7.2,10.1-15.4,5.9-5.3,14.5-12.6,26.4-22.2,22-17.9,51.7-41.4,80.5-64.1s60.6-47.8,82.4-65.7c-17.1,10.1-39,23.4-58.4,35.2-78,47.4-81.8,49-85.4,48a4.7,4.7,0,0,1-2.9-2.1c-2-3.5.9-6.9,4.9-11.6s7.3-8.1,13.3-14.4c11-11.5,26-26.7,40.6-41.4s28.2-28.6,39.2-40.1l-4.6,2.8c-28.4,17.8-29.8,18.2-32.7,17.5a4.9,4.9,0,0,1-2.9-2.2c-1.8-3.1-1.9-3.3,23.5-48,6-10.5,13-22.9,17-30.3a1.8,1.8,0,0,1-.5-.7,4.4,4.4,0,0,1,1.6-6.1l.5-.3h0l1.4-.8c2.5-1.6,3.6-2.2,5.5-1.7a4.3,4.3,0,0,1,2.8,2.1c1.8,3,1.8,3-20.5,42.2-5.7,10.1-12.7,22.5-17.5,31.2,5.3-3.2,11.7-7.1,17-10.5,26.4-16.5,27.8-17,30.6-16.3a4.5,4.5,0,0,1,2.9,2.1c2,3.5-.8,6.8-4.8,11.3s-7,7.8-12.7,13.8c-10.7,11.2-25.3,26-39.4,40.3s-32.3,32.6-43.9,44.9c16.4-9.5,41-24.5,62.3-37.4,84.2-51.2,89-53.2,92.8-52.2a4.4,4.4,0,0,1,2.9,2.2c2.3,4-1.2,7.4-9.3,14.6-5.5,4.8-13.5,11.5-24.5,20.5-20.3,16.5-48.4,38.7-75.6,60.2-34.4,27.1-74.7,58.8-97.2,77.8,24-13.6,63.7-38.2,97.6-59.3,27.4-17,55.7-34.5,77.1-47.2,37.1-22.1,39.8-21.4,42.4-20.8a5.2,5.2,0,0,1,3.1,2.3,4.6,4.6,0,0,1-1.7,6.2,4.8,4.8,0,0,1-3.3.5c-9.7,2.7-66.8,38.1-112.8,66.7-28.3,17.5-57.6,35.7-80.1,49Zm201.9-124.8Zm-79.5-121.9Zm-5.4-2a4.5,4.5,0,0,1,5.4,2A4.7,4.7,0,0,0,1454.9,1341.8ZM1753,1667.6a5.2,5.2,0,0,1-4.1.9,4.8,4.8,0,0,1-2.2-1.2c-1.7-1.3-12.7-8.2-21.6-13.8l-21.9-13.9c-6.9,3.3-30.7,17.8-50.1,29.7-55,33.5-55.8,33.3-58.8,32.5a4.6,4.6,0,0,1-2.9-2.1c-1.9-3.2.3-5.8,4-10.2,2.3-2.7,5.7-6.6,10.4-11.7,8.8-9.5,20.5-22,33-35.2,15-16,33.6-35.8,45.4-48.9-17.7,10.2-46.7,27.9-71.6,43.2s-48.5,29.6-67.5,40.9c-33.4,19.6-35.4,19.1-37.9,18.5a4.6,4.6,0,0,1-3-2.3c-2.2-3.7.8-6.9,7.8-13.7,4.6-4.5,11.2-10.6,20.4-18.8,16.9-15.1,39.7-34.9,61.8-54s48.1-41.6,64.2-56.2c-28.7,15.9-83,49.1-129,77.2-33.9,20.7-65.9,40.3-90.9,55.1-43,25.4-45.3,24.8-47.9,24.1a4.6,4.6,0,0,1-3-2.2c-2.3-4,.9-7.1,9.1-14.5,5.3-4.8,13.1-11.5,23.8-20.3,19.8-16.4,46.9-38.3,73.1-59.4,30.2-24.3,65.4-52.6,86.5-70.5-29.3,16.6-81.8,48.8-129.7,78.2-42.9,26.3-87.2,53.5-121.7,73.8-59.6,35.1-63.4,34.1-66.4,33.3a5.1,5.1,0,0,1-3.3-2.4c-2.3-4.1.7-7.5,12.3-17,7.4-6,18.1-14.2,32.9-25.2,27.5-20.4,64.1-46.5,102.8-74.2s79.1-56.6,109.9-79.4c20.7-15.3,33.6-25.4,41.6-31.9-12,6-32.7,17.4-68.1,38.3-45.3,26.7-102.5,61.6-157.8,95.4-48.9,29.9-95.1,58.2-130.5,79.1-60,35.6-63,34.8-66,34.1a5,5,0,0,1-3-2.3c-2.1-3.6.6-6.7,6-12.5,3.5-3.8,8.8-9,15.9-16,13.2-12.9,31.2-29.8,48.6-46.2s36.3-34.2,49.5-47.1c-22.8,13-61.2,36.4-96.4,57.8-33.7,20.5-68.5,41.6-95.6,57.5-47.1,27.7-49.6,27-52.3,26.3a4.4,4.4,0,0,1-3-2.3c-2.2-3.8.9-6.9,8.1-13.7,4.7-4.4,11.7-10.5,21.2-18.7,17.6-15.1,41.9-35.3,65.3-54.8,26.5-22,57.1-47.5,76.4-64.4-21.7,12.6-55,33.1-85.8,52-29.3,18-59.6,36.6-83,50.4-40.8,24-43.3,23.4-46,22.7a4.8,4.8,0,0,1-3.1-2.3c-2.3-3.9,1-7.5,8.8-14.7,5.3-4.8,13-11.4,23.7-20.2,19.7-16.2,46.9-37.7,73.1-58.5,31.7-25.1,68.7-54.4,89.9-72.5-20.6,11.8-51.8,31-77,46.4-75.6,46.4-79.4,48-83.1,47a4.6,4.6,0,0,1-2.9-2.2c-2-3.5.7-6.3,5.5-11.3,3.2-3.3,7.8-7.9,14.1-14,11.8-11.4,27.6-26.2,44.4-41.8,18.7-17.6,41.7-39.1,57.2-54.3l-22.7,13.8c-47.2,28.9-47.9,28.7-50.8,28a4.4,4.4,0,0,1-2.9-2.2c-1.9-3.2.5-6.3,4.2-10.9s6.2-7.5,11.3-13.4c9.4-10.7,22.2-24.8,34.6-38.5,10.5-11.6,22.4-24.7,31.4-35l-7.5,4.4c-6.7,3.9-6.7,3.9-8.6,3.4l1.2-4.4,3.9-2.2a4.5,4.5,0,0,0-5.9-1.8c.9-.5,9.3-5.3,16-9.3l11.6-6.7c7-4,7-4,8.8-3.5a4.3,4.3,0,0,1,2.8,2.1c1.8,3.2-.5,6-3.9,10.4-2.4,2.9-5.8,7-10.6,12.4-8.7,10-20.9,23.3-32.6,36.3s-26.6,29.4-36.5,40.7l28.8-17.5c46.4-28.4,47-28.2,50-27.4a4.3,4.3,0,0,1,2.8,2.1c2.1,3.6-.7,6.8-6.6,13-3.9,4.2-9.6,9.9-17.5,17.5-14.4,14-33.7,32-52.4,49.5-15.4,14.5-32,30.1-44.2,41.8,15.3-9,36.1-21.8,55.4-33.7,86.4-53,99.1-59.7,104-58.5a4.4,4.4,0,0,1,3,2.3c2.4,4-1,7.7-9.2,15.2-5.5,5.1-13.5,12-24.7,21.2-20.5,16.9-48.6,39.1-75.7,60.6-30.5,24.2-66.2,52.4-86.6,69.8,24.7-13.9,66.8-39.8,102.8-61.9,27.8-17,54-33.1,74.4-45.2,35.4-21,37.4-20.5,40-19.9a5.3,5.3,0,0,1,3,2.3c2.2,3.8-1,7.1-8.4,14.1-5,4.6-12.1,10.9-22,19.4-18.3,15.7-43.1,36.3-67.2,56.4-26,21.6-56.3,46.8-74.9,63.1,28.1-15.7,78.2-46.2,120.8-72.1,29.9-18.2,58.1-35.3,79.8-48.1,37.4-22.1,39.1-21.7,41.6-21a4.9,4.9,0,0,1,2.9,2.2c2.1,3.6-1,6.8-5.7,11.8s-8.1,8.4-14.8,14.9c-12.4,12.1-29.5,28.2-46,43.8-19.9,18.6-43,40.4-56.7,54.1,32.5-17.6,107.2-63.2,174.8-104.5,56.6-34.6,115-70.3,160.9-97.3,78.7-46.3,83.4-45.1,86.9-44.2a5.6,5.6,0,0,1,3.3,2.5c2.4,4.1-.4,7.9-14,19.2-8.5,7-20.9,16.6-37.9,29.2-31.5,23.5-73.9,53.8-114.9,83.1-48.1,34.4-100.9,72.2-127.7,93,9.5-5.1,23-12.7,42.4-24.2,34-20.1,77.1-46.5,118.8-72.1,38.9-23.8,75.5-46.3,103.9-63.2,48.5-28.7,51.1-28,53.9-27.3a4.8,4.8,0,0,1,3.1,2.3c2.3,3.9-1,7.1-9.3,14.6-5.4,4.9-13.3,11.6-24.1,20.6-20.1,16.7-47.5,38.7-74,60-29,23.4-62.7,50.6-83.7,68.3,26.3-15.1,69.6-41.5,109.2-65.8,35.4-21.6,71.9-43.9,100-60.5,48.6-28.6,51.5-27.9,54.3-27.2a5.6,5.6,0,0,1,3.1,2.3c2.2,3.8-1.1,7-7.1,12.8-4,3.9-10,9.4-18.2,16.7-15.2,13.5-35.4,31-56.7,49.4-24.8,21.5-53.7,46.5-71.4,62.6,20.4-11.7,52-31,79.2-47.7,22.4-13.7,43.6-26.7,60.1-36.5,28.9-17.1,30.5-16.7,32.8-16.1a4.8,4.8,0,0,1,3,2.2c1.9,3.3-.3,6.2-5,11.8-3,3.7-7.4,8.6-13.4,15.2-11.1,12.2-25.8,27.8-40.1,43-11,11.6-22.7,24.1-31.6,33.8,10.3-6.1,23.2-14,34.7-21,53-32.4,53.7-32.2,56.7-31.4a4,4,0,0,1,2.1,1.2c2,1.5,13.4,8.7,22.7,14.5,11.5,7.2,17.3,10.8,20.3,12.8l.5-.3c3.2-2.2,4.7-3.2,6.9-2.7a4.6,4.6,0,0,1,3,2.2,4.5,4.5,0,0,1-1.7,6.1l-1.1.5-2,1.3A21,21,0,0,1,1753,1667.6Zm-.2-5.2a6.7,6.7,0,0,0,1.4,1.5A4,4,0,0,1,1752.8,1662.4Zm-6.7,4.1Zm0,0Zm0,0Zm0,0Zm0,0Zm0-.1h0Zm-.1,0h0Zm0,0Zm0,0Zm0,0Zm0,0Zm0-.1h0Zm0,0Zm0,0Zm0,0Zm-38.1-34h0Zm0,0Z"/><path class="cls-2" d="M1929.8,1737.9c-16.5,9.6-18.9,9.9-21,9.4a5.2,5.2,0,0,1-3-2.2c-2.1-3.7,1-6.9,6.1-12.3,3.6-3.8,8.8-9,16-15.9,13.3-12.8,31.4-29.7,48.9-46s38.1-35.5,51.9-49c-15.7,9.2-37.5,22.5-56.6,34.1-74.7,45.6-78.7,47.2-82.3,46.3a4.4,4.4,0,0,1-2.9-2.2c-2.2-3.7,1-6.9,6.2-12.3,3.6-3.7,9-8.8,16.3-15.7,13.7-12.7,31.7-28.9,50.7-46.2s43.3-39,58.9-53.8l-42.3,25.5c-70.9,43.1-74.7,44.6-78.2,43.7a4.6,4.6,0,0,1-2.9-2.2c-2-3.4.7-6.5,4.8-11.1s7-7.6,12.7-13.5c10.6-10.9,24.7-24.8,39.6-39.7s35.2-35.1,48-48.4c-14,8.1-33.6,20.1-50.7,30.6-64.3,39.2-67.5,40.5-70.9,39.6a4.6,4.6,0,0,1-2.9-2.2c-2-3.4.7-6.3,5.6-11.5,3.2-3.5,7.9-8.2,14.3-14.6,12-11.8,28.5-27.7,44.4-43s36.9-35.5,50.5-49c-14,8.2-32.7,19.5-49.1,29.5-69.4,42-70.2,41.8-73.4,41a4.9,4.9,0,0,1-2.9-2.2c-2.1-3.6,1.1-7,5.9-12.1s8.4-8.7,15.3-15.4c12.8-12.5,30.3-28.9,47.3-44.9s38-35.7,51.7-49.1c-15.9,9.3-38.5,23.1-58.2,35.1-75.4,46-83.3,50.1-87.4,49.1a4.6,4.6,0,0,1-2.9-2.2c-1.9-3.3.4-6,4.2-10.4s6.1-7,11.1-12.4c9.2-10.1,21.4-23.1,34.4-36.8s30.3-32.1,41.7-44.8l-23.2,14.3c-42.3,26-43,25.8-45.9,25.1a4.6,4.6,0,0,1-2.9-2.2c-1.6-2.8,0-5.2,2.8-9.2l7.8-10.4c6.4-8.4,15-19.4,24.1-31s21.1-26.9,29.2-37.6c-10,5.8-23.2,13.8-34.8,20.8-55.5,33.4-56,33.2-58.9,32.5a4.4,4.4,0,0,1-2.8-2.2c-1.7-2.9.2-5.6,2.8-9.4s4.3-6.2,7.9-10.9c6.6-8.8,15.7-20.5,24.6-31.9s19-24.5,26.5-34.5l-16.8,10c-27.9,16.6-27.9,16.6-30.2,16a4.3,4.3,0,0,1-2.8-2.1c-1.4-2.4-1.4-2.4,9.4-35.7,2.6-8.1,5.8-17.9,8-25.1l-4.8,2.8-9.2,5.4c-5.8,3.3-5.8,3.3-7.6,2.8l1.2-4.3,3.8-2.3-3.8,2.3-2.1-4,13.2-7.7,10.5-6c5.2-3.1,5.3-3,7-2.6a4.6,4.6,0,0,1,2.8,2.1c1.4,2.5,1.5,2.6-10.5,39.4-2.3,7.2-5,15.4-6.9,21.6l17.4-10.4c33.9-20.2,33.9-20.2,36.5-19.5a4.6,4.6,0,0,1,2.8,2.1c1.7,3-.2,5.9-2.9,9.9s-4.7,6.6-8.5,11.7c-7.1,9.4-16.7,21.7-25.9,33.6s-17.9,23-24.8,32.2c10.9-6.4,26.2-15.5,39.4-23.5,51.4-31,51.8-30.9,54.6-30.2a4.7,4.7,0,0,1,2.8,2.2c1.7,2.9-.2,5.7-3.3,10.1s-5,7-9.2,12.4c-7.5,10-17.7,23-27.5,35.5L1875,1423c7.8-4.6,17.3-10.5,25.7-15.7,43.1-26.5,43.8-26.3,46.7-25.6a4.6,4.6,0,0,1,2.9,2.2c1.9,3.4-.6,6.4-4.8,11.5-2.9,3.4-7.2,8.2-13,14.5-10.7,11.7-25,27-38.9,41.7-12,12.7-25.6,27.2-35.4,37.8h.3c16.8-9.7,42.3-25.3,64.4-38.8,75.8-46.3,79.9-47.9,83.6-47a4.9,4.9,0,0,1,2.9,2.2c2,3.5-.6,6.6-5.9,12.2-3.5,3.7-8.5,8.8-15.5,15.6-13,12.6-30.6,29.2-47.7,45.3s-36.6,34.3-50.1,47.5c13.6-8,31.4-18.7,47-28.2,71.1-43.1,71.9-42.9,75.2-42a4.6,4.6,0,0,1,2.8,2.1c2.1,3.6-.7,6.6-5.9,12.2-3.5,3.7-8.5,8.9-15.5,15.8-12.8,12.7-30.2,29.4-47.1,45.6s-33,31.7-45.6,44.2c12.9-7.6,29.5-17.8,44.2-26.7,66.9-40.8,70.5-42.3,74-41.4a5,5,0,0,1,2.9,2.2c2,3.4-.6,6.7-5.3,12.1-3.2,3.6-7.9,8.6-14.4,15.3-11.9,12.3-27.9,28.3-43.5,43.7-13.9,13.8-29.7,29.6-40.9,41.2,14.8-8.7,35.7-21.4,54-32.5,66.2-40.2,66.9-40,70-39.2a4.4,4.4,0,0,1,2.9,2.2c2.1,3.6-.7,6.8-6.7,13-4,4.1-9.9,9.7-17.9,17.2-14.8,13.9-34.9,32-54.3,49.5s-38.9,35.2-53.4,48.8c15.5-9.1,36.4-21.9,54.7-33,75.1-45.8,79.2-47.4,82.8-46.5a4.4,4.4,0,0,1,2.9,2.2c2.1,3.6-.9,6.8-6,12.2-3.5,3.7-8.6,8.8-15.7,15.6-13.1,12.6-31.1,29.3-48.4,45.5s-38.9,36.3-53,50c14.6-8.6,34.2-20.5,50.3-30.4,60.7-37.1,63.6-38.2,66.8-37.4a4.7,4.7,0,0,1,2.9,2.2,4.5,4.5,0,0,1-3.8,6.8c-5.8,2.3-36.4,21-61.2,36.1C1957.8,1721.3,1940.7,1731.6,1929.8,1737.9Zm112.4-71.5.4.5Zm0-.1h0Zm0,0Zm0,0ZM1088.5,827.2c-3.2,1.9-3.9,1.9-5.4,1.5a4.3,4.3,0,0,1-2.8-2.1c-1.4-2.4-1.4-2.4,9.6-38.3,2.4-7.8,5.1-16.8,7-23.2-12.4,6.8-37.7,22.2-58.9,35.1-61.7,37.6-62.5,37.4-65.6,36.6a4.4,4.4,0,0,1-2.8-2.2c-2.1-3.5.9-6.9,5-11.6s7.5-8.3,13.6-14.6c11.2-11.7,26.6-27.1,41.5-42s32.7-32.8,44.3-44.8c-21.8,12.2-60.2,35.8-93,55.8-28.2,17.3-57.5,35.1-79.8,48.3-38.9,22.9-41.2,22.4-43.7,21.7a4.8,4.8,0,0,1-3.1-2.3c-2.2-3.8.6-6.9,9-14.8,5.3-5,13.1-11.8,23.7-20.9,19.6-16.8,45.9-38.5,71.4-59.6s55-45.6,72.4-60.7c-29.7,16.4-86.7,51.4-134.8,81.1-35.7,22-72.6,44.7-100.4,61.2-47.9,28.4-50.9,27.6-53.8,26.9a5.2,5.2,0,0,1-3.1-2.3,4.4,4.4,0,0,1,5-6.6c11.5-3,86.8-49.4,147.5-86.8,36.9-22.8,75-46.3,104.2-63.5,50.1-29.7,53.4-28.8,56.3-28.1a4.9,4.9,0,0,1,3.2,2.4c2.3,3.9-1.3,7.2-7.8,13.2-4.5,4.1-11,9.9-20.1,17.6-16.8,14.4-39.2,32.9-62.9,52.5-29.7,24.6-64.4,53.4-84.7,71.2,23.8-13.5,63.1-37.6,96.8-58.2,26.6-16.3,54.2-33.1,74.8-45.3,35.9-21.2,37.8-20.7,40.3-20a4.8,4.8,0,0,1,3,2.2c2,3.5-.9,6.8-4.9,11.4s-7.2,7.9-13.1,14c-10.9,11.3-25.8,26.3-40.3,40.8s-32.3,32.3-44.2,44.7c12-7.1,27.6-16.6,41.4-25,64.6-39.3,67.8-40.5,71.2-39.7a4.4,4.4,0,0,1,2.9,2.2c1.4,2.4,1.4,2.4-8.9,36-2.4,7.7-5.3,17.2-7.3,24.1,7.3-4.5,7.7-4.7,9.7-4.1a4.3,4.3,0,0,1,2.8,2.1,4.4,4.4,0,0,1-1.6,6.1l-1,.5c-1.2.6-4.4,2.5-6.6,3.9Zm7.4-9.6a5.5,5.5,0,0,0,1.7,1.7A4.6,4.6,0,0,1,1095.9,817.6Zm3.2-60.5ZM746.6,851.5Zm0-.1Zm1168.7,1113c-12,6.9-13,6.6-14.9,6.2a4.9,4.9,0,0,1-2.9-2.2c-2-3.5.8-6.5,5.4-11.4,3.2-3.3,7.8-8,14.1-14.1,11.7-11.5,27.3-26.3,43.9-42,20.1-19.1,43.5-41.3,57.7-55.6-22.6,12.8-63.1,37.7-97.5,59-30,18.4-61,37.5-84.9,51.6-41.4,24.6-44.2,23.9-46.9,23.2a4.8,4.8,0,0,1-3.1-2.4c-2.4-4,.9-7.3,10.3-15.3,6-5.1,14.9-12.2,27.2-21.7,22.7-17.6,53.1-40.4,85.2-64.4,42.5-31.9,96.7-72.4,123.4-94.5-32.8,18.2-98.8,58.6-154.5,92.7-47.2,28.9-96,58.8-133.7,81.1-64.7,38.1-68.7,37.1-71.9,36.3a5.2,5.2,0,0,1-3.2-2.4c-2.2-3.8.8-7.2,8.5-14.5,5.1-4.7,12.5-11.2,22.6-19.9,18.8-16,44.3-37,69-57.3,26.8-22,57.9-47.6,76.6-63.9-29.5,16.4-84.6,50-131.3,78.5-34.9,21.3-71,43.3-98.2,59.3-46.6,27.5-49,26.9-51.7,26.2a4.8,4.8,0,0,1-3.1-2.3c-2.2-3.9.8-7.1,9.8-15.3,5.8-5.2,14.2-12.3,25.7-21.8,21.2-17.6,49.9-40.6,77.7-62.9,30.2-24.2,63.2-50.6,82.8-67.2-33,18.2-97.6,57.8-152.2,91.2-40.9,25.1-83.3,51-115.3,69.9-54.9,32.4-58.1,31.6-61,30.9a5.3,5.3,0,0,1-3.1-2.4c-2.3-3.9,1-7.4,9.5-15,5.7-5.1,14-11.9,25.4-21.1,21.1-16.9,50.4-39.5,78.6-61.4,35.9-27.8,78.1-60.3,101.3-79.8-31.3,17.6-90.5,53.6-144.4,86.3-45.2,27.5-91.9,55.9-127.9,77.1-61.9,36.3-65.3,35.5-68.2,34.7a4.8,4.8,0,0,1-3.1-2.3c-2.3-4,1.3-7.4,9.7-14.7,5.6-4.9,13.9-11.7,25.3-20.8,21.1-16.8,49.2-38.5,78.9-61.4,37.7-29.1,81.8-63.1,106.6-83.6-32.2,18.2-91.5,54-145.5,86.7-44.3,26.8-90.1,54.5-125,75-60,35.2-62.8,34.5-65.7,33.7a4.4,4.4,0,0,1-3-2.3c-2.2-3.7.4-6.8,9.5-14.9,5.7-5,14-11.9,25.4-21,21.1-16.9,49-38.5,78.6-61.4,37.7-29.1,82.1-63.5,105-82.8-31.5,17.2-95.2,56.2-148.8,89-38.5,23.5-78.2,47.9-108,65.5-51.2,30.2-54.1,29.5-56.9,28.8a5,5,0,0,1-3.1-2.3c-2.2-3.8.6-7,8.5-14.5,5.1-4.9,12.4-11.5,22.5-20.3,18.6-16.2,43.6-37.3,67.7-57.6s50.9-43,67.3-57.5c-29.1,16.1-84.4,50.3-131.3,79.2-37.1,22.9-75.5,46.6-104.8,63.9-50.4,29.9-53.8,29-56.7,28.3a4.9,4.9,0,0,1-3.2-2.4c-2.4-4,1.4-7.4,8.3-13.5,4.8-4.3,11.9-10.3,21.6-18.3,18.1-14.8,42.4-34.2,68.1-54.6,34.7-27.7,78.8-62.9,101.7-82.7-29.6,16.3-87.1,51.6-135.7,81.3-35.9,22-73.1,44.7-101,61.2-48.1,28.4-50.7,27.8-53.6,27a4.8,4.8,0,0,1-3.1-2.3c-2.1-3.6.5-6.5,8.5-13.8,5-4.5,12.2-10.8,22.1-19.1,18.4-15.4,43.7-36.1,68.2-56.2,30.2-24.5,65.3-53.2,85.9-71-29.4,16.4-83.1,49.2-128.8,77-34,20.7-69.1,42.1-95.4,57.6-45.3,26.7-47.6,26.1-50.3,25.4a4.8,4.8,0,0,1-3-2.2c-2.1-3.7,1-7.3,6.8-13.5,4-4.3,9.9-10.2,18-18,14.9-14.3,34.7-32.7,53.8-50.5,15-13.9,31.1-28.9,43-40.3-14.2,8.5-33,20.1-50.5,31-22,13.5-44.6,27.5-62.5,38.1-31.7,18.7-34,18.1-36.5,17.5a4.4,4.4,0,0,1-3.1-2.3c-1.9-3.2.4-5.9,3.8-10.1,2.2-2.7,5.5-6.6,10.1-11.7,8.4-9.5,19.7-21.8,31.6-34.9,13.5-14.8,30.2-33.1,41.1-45.5-15.5,8.9-39.2,23.3-58.3,35-63.6,38.8-66.5,40-69.8,39.1a4.4,4.4,0,0,1-2.9-2.2c-2-3.4.7-6.5,4.9-11.1s7.2-7.6,13-13.5c10.9-10.9,25.3-25,40.6-40s37.3-36.4,50.9-50.3c-13.2,7.8-31.1,18.7-47.7,28.8-76.7,46.6-81.1,48.4-84.9,47.5a4.6,4.6,0,0,1-2.9-2.2c-2.2-3.8,1.2-7.2,6.9-12.8,4-4,9.9-9.5,17.9-16.8,15-13.6,35.6-31.7,55.5-49.2,22.1-19.5,47.7-42,64.2-57.2-14.7,8.6-34.3,20.7-50.5,30.7-56.5,34.7-57.3,34.5-60.4,33.8a5.3,5.3,0,0,1-2.9-2.2c-1.8-3.3.6-6.2,4.2-10.6s6-7.1,11-12.7c9.2-10.2,21.8-23.9,34.1-37.2s28.9-31.3,39.2-42.9c-13.6,7.9-33.1,20-49,29.8-56.3,34.9-61.9,37.7-65.7,36.8a5,5,0,0,1-3-2.3c-2-3.5.5-6.8,7.3-13.8,4.3-4.5,10.6-10.6,19.3-18.8,15.9-15,37-34.1,57.4-52.6,15.4-14,31.9-29,44.4-40.6-11,6.6-24.1,14.7-35.9,21.9-64.6,39.8-72.1,43.6-76.1,42.6a5,5,0,0,1-3-2.3c-1.9-3.3.6-6.3,4.2-10.5s6.2-7.1,11.3-12.5c9.4-10.1,21.9-23.2,35.2-37s32.4-33.7,44.2-46.6c-12.9,7.5-30.8,18.4-46.5,27.9-63.9,38.9-64.8,38.7-67.9,37.9a4.9,4.9,0,0,1-2.9-2.2c-2.1-3.6.9-7,6.2-12.7,3.6-3.9,9-9.3,16.4-16.4,13.7-13.2,32.3-30.4,50.2-47.1s35.9-33.3,49.3-46.2c-15.3,9-36.3,21.7-54.6,32.8-77.6,47.1-81.8,48.8-85.4,47.9a4.6,4.6,0,0,1-2.9-2.2c-2.1-3.6.7-6.6,7.1-13.1,4.1-4.1,10.1-9.9,18.4-17.6,15.2-14.2,35.8-32.8,55.6-50.8,17.5-15.8,37.4-33.8,51.8-47.2-14.5,8.6-33.3,20-49.9,30.1-73.7,44.7-74.6,44.4-77.9,43.6a4.6,4.6,0,0,1-2.9-2.2c-2.1-3.7,1.1-6.9,6.6-12.2,3.7-3.7,9.3-8.8,16.9-15.7,14.1-12.7,32.9-29.3,52.8-46.7,23.2-20.4,52-45.6,70-62.2-17.4,10.1-42,25.1-62.1,37.3-69.3,42.1-70,41.9-73.2,41.1a4.6,4.6,0,0,1-2.9-2.2c-2.2-3.8,1.1-7.4,7-13.5,4.2-4.3,10.4-10.2,18.9-18,15.6-14.3,36.6-33,57-51.1,18.7-16.6,40.1-35.6,54.8-49.2-17.2,10-41.3,24.7-62.3,37.5-77,46.9-81.1,48.6-84.7,47.6a4.4,4.4,0,0,1-2.9-2.2c-2.1-3.6.9-6.7,5.9-11.8,3.5-3.6,8.5-8.5,15.5-15.1,12.9-12.1,30.1-27.8,48.3-44.4,20.1-18.3,45-41,60.9-56.3-12.2,7.3-28,17.1-41.9,25.7-57.7,35.9-64.5,39.4-68.5,38.4a5,5,0,0,1-3-2.3c-2-3.4.8-6.5,5.3-11.5,3.1-3.5,7.7-8.2,13.9-14.6,11.6-11.7,27.4-27.4,42.7-42.5s33.8-33.5,46.1-46.1c-12.2,7.3-28.4,17.4-42.7,26.2-55.9,34.9-62,37.9-66,36.9a4.8,4.8,0,0,1-3-2.2c-1.9-3.4.7-6.3,4.6-10.8,2.7-3,6.7-7.2,12.1-12.7,10.1-10.4,23.6-23.9,37.9-38.1,17.3-17.2,38.7-38.6,51.9-52.5-17.7,10.1-46.1,27.4-68.8,41.3-67.1,40.9-67.8,40.7-71,39.9a4.4,4.4,0,0,1-2.8-2.2c-2.1-3.5.4-6.8,7.2-13.8,4.3-4.6,10.6-10.7,19.2-18.9,15.9-15.1,36.9-34.2,57.1-52.7,14.9-13.6,30.9-28.2,43-39.5-11.8,7-26.1,15.8-38.9,23.6-60.8,37.2-63.9,38.4-67.3,37.5a4.6,4.6,0,0,1-2.9-2.2c-1.9-3.3.6-6.2,4.4-10.7s6.3-7.4,11.5-13.1c9.6-10.5,22.9-24.6,35.7-38.2s29.1-31,39.8-42.7c-14.1,8.2-34.4,20.6-52,31.3-69.9,42.7-73.7,44.2-77.3,43.3a4.4,4.4,0,0,1-2.9-2.2c-2.2-3.7,1.1-6.9,6.5-12.1,3.8-3.7,9.3-8.7,16.9-15.5,14.1-12.5,33.1-29,53.2-46.4,24.3-21,54.4-47.1,73.6-64.6-12.4,7.4-27.8,16.8-41.4,25.2-68,41.6-75.2,45.3-79.2,44.3a4.8,4.8,0,0,1-3-2.2c-2.1-3.6.8-6.8,6.9-13,4-4.1,9.8-9.8,17.8-17.4,14.9-13.9,34.9-32.1,54.3-49.7,17.7-16.2,38-34.6,52.2-48-15.7,9.2-37.1,22.3-55.9,33.8-68.4,41.7-71.8,43.1-75.2,42.2a4.4,4.4,0,0,1-2.9-2.2c-1.9-3.3.5-6.1,4.5-10.8s6.5-7.6,11.8-13.4c9.8-10.7,23.3-25.1,36.3-39s27.8-29.5,38.3-41c-10.2,6.1-22.9,14-34.3,20.9-57.7,35.7-64.4,39.1-68.3,38.1a4.6,4.6,0,0,1-3-2.2c-2-3.5.8-6.7,4.8-11.1s7-7.6,12.7-13.5c10.6-10.8,24.7-24.8,39.7-39.6,16.5-16.3,36.9-36.6,49.9-50.1-15,8.7-36.9,22.1-54.7,33-58,35.6-58.7,35.4-61.8,34.6a4.9,4.9,0,0,1-2.9-2.2c-2.1-3.7.9-7,6.8-13,4-4.1,9.9-9.7,17.9-17.2,14.9-13.8,35.1-32,54.6-49.5s39.1-35.1,53.8-48.8c-14,8.3-32.1,19.3-49.1,29.5-85.5,51.9-90.8,54.1-94.6,53.1a4.6,4.6,0,0,1-2.9-2.2c-2.6-4.6,1.8-8.9,18.3-21.4,10.9-8.3,26.9-19.8,48.9-35,40.8-28.2,96.8-65.8,151-102.1,73.9-49.6,161.8-108.5,201.2-137.8-37.4,20.9-110.2,65.4-171.7,103C764.2,840.7,709.9,874,668,898.7c-71.8,42.3-76.2,41.1-79.5,40.3a4.9,4.9,0,0,1-3.2-2.4c-2.5-4.3,1-8.3,12.9-18.1,7.8-6.4,19.3-15.2,35.1-26.9,29.3-21.6,69.7-50.3,108.7-78s77.7-55.1,107.6-77.1c18.6-13.6,30.6-22.9,38.4-29.3-9.8,5.2-25,13.8-48.6,27.6-35.3,20.9-79.9,48.2-122.9,74.6-38.4,23.5-74.6,45.7-102.4,62.2-47.4,28.2-49.9,27.5-52.6,26.8a5,5,0,0,1-3.1-2.2c-2.3-4.1,1.4-7.3,8.6-13.7,5-4.4,12.3-10.5,22.2-18.7,18.6-15.2,43.5-35,69.8-55.9,33.1-26.3,74.6-59.3,98.6-79.6-22.4,12.9-56.6,33.8-86.2,51.9-26.9,16.5-54.7,33.5-75.9,46-36.8,21.7-38.8,21.2-41.4,20.5a4.6,4.6,0,0,1-3-2.2c-2-3.6.6-6.7,6-12.4,3.5-3.9,8.7-9.1,15.9-16.1,13.2-12.9,31.1-29.8,48.4-46.1,15.2-14.4,32.6-30.8,45.4-43.3L654.4,734c-36.7,22.1-36.8,22.1-39.4,21.4a4.6,4.6,0,0,1-2.8-2.1,4.5,4.5,0,0,1,1.6-6.2l1.4-.5c3.5-1.6,20.7-11.9,34.6-20.3,38.2-22.9,38.4-22.9,41.1-22.2a4.9,4.9,0,0,1,2.8,2.1c2,3.6-1,6.9-5.7,11.8-3.2,3.5-8.1,8.4-14.7,14.9-12.3,12-29.3,28-45.7,43.5-19.2,18.1-41.4,39-55.2,52.8,22.2-12.6,61.2-36.4,94.3-56.7,26.5-16.2,53.9-33,74.6-45.2,36.1-21.2,38.1-20.7,40.6-20.1a4.6,4.6,0,0,1,3,2.3c2.1,3.6.2,6.4-10.5,16-6.1,5.6-15.1,13.2-27.4,23.3-22.8,18.7-53.1,42.8-82.4,66.2-27.5,21.8-57.2,45.4-76.7,61.5,29.3-16.8,78.7-47,123.9-74.8s90-55.1,125.8-76.3c62-36.4,66-35.4,69.1-34.6a5.1,5.1,0,0,1,3.3,2.4c2.7,4.6-2.3,9.5-13.5,18.8-8.2,6.7-20.2,16-36.7,28.2-30.6,22.6-72.3,52.2-112.6,80.8-51.4,36.5-112.6,79.9-139.8,101.6,11.3-5.9,29.5-16,58.9-33.4,41.4-24.5,94.5-56.9,145.8-88.3,49.8-30.5,96.8-59.3,133.4-80.9,62.2-36.8,65.6-35.9,68.6-35.2a5.2,5.2,0,0,1,3.2,2.4c2.4,4.1-2,8.1-5,10.8s-7.6,6.5-13.9,11.3c-11.4,8.7-28,20.5-50.8,36.3-42.2,29.3-99.7,67.9-155.3,105.1C729.2,893,655.7,942.3,612.9,972.8c15.8-9.4,33.7-20.2,49.1-29.6,73.9-44.8,74.7-44.6,77.9-43.8a4.4,4.4,0,0,1,2.8,2.2c2.2,3.7-1.2,7.2-6.3,12.4s-9.2,9-16.8,16c-13.9,12.9-33.1,30.2-51.7,46.9s-42.9,38.5-58.6,53.2c10-6,22-13.3,33.3-20.3,65.7-40.2,73.3-44.1,77.3-43.1a5.1,5.1,0,0,1,2.9,2.3c2,3.4-.6,6.7-5.4,12.1-3.3,3.7-8.1,8.8-14.7,15.6-12.1,12.5-28.5,28.7-44.3,44.3-14.1,13.9-30.1,29.9-41.4,41.4,13-7.6,30.3-18.3,44.5-27.1,51.9-32.1,54.4-33,57.7-32.2a4.4,4.4,0,0,1,2.9,2.2c1.9,3.3-.5,6.1-4.5,10.9-2.7,3.2-6.6,7.6-12,13.6-10,10.9-23.6,25.4-36.8,39.4s-27.6,29.4-38,40.8c14.3-8.4,34.6-20.8,52.2-31.5,75.2-45.9,79.7-47.7,83.4-46.8a4.5,4.5,0,0,1,2.9,2.3c2.1,3.6-1,6.8-6.1,12s-8.8,8.7-16,15.4c-13.4,12.5-31,28.6-49.7,45.6-20.9,19-45,40.9-60.6,55.8,15.2-8.9,35.9-21.6,53-32.1,63.4-38.8,66.6-40.1,70-39.2a4.9,4.9,0,0,1,2.9,2.2c2,3.5-.2,6.5-8.2,14.4-4.9,4.8-12,11.3-21.7,20-17.9,16.1-41.7,36.7-64.6,56.6-18.6,16-38.5,33.3-53.2,46.3,13.8-8.2,31-18.7,46.2-28,67.6-41.2,71-42.6,74.5-41.7a4.9,4.9,0,0,1,2.9,2.2c1.9,3.4-.7,6.4-4.6,11.1s-6.7,7.8-12.2,13.8c-10.1,11.1-23.8,25.7-37.1,39.9s-26.9,28.5-37,39.6c12.5-7.3,29.4-17.7,44.3-26.8,61.4-37.6,64.6-38.8,68-38a4.7,4.7,0,0,1,2.9,2.2c2.1,3.6-.7,6.5-5.4,11.3-3.2,3.2-7.8,7.6-14.1,13.6-11.8,11.1-27.8,25.7-44.7,41.1-21.5,19.7-48.3,44.1-65.2,60.4,12.7-7.5,29.3-17.6,44.7-27,77.6-47.3,86.4-51.9,90.7-50.8a4.8,4.8,0,0,1,3,2.2c2,3.5-.7,6.8-5.6,12.4-3.4,3.9-8.3,9.1-15,16.1-12.5,12.8-29.1,29.4-45.1,45.3-13.5,13.5-28,27.9-38.4,38.6,12-7.2,27.8-17,41.7-25.6,56.4-35.1,63-38.5,67-37.5a5,5,0,0,1,3,2.3c2,3.4-.8,6.5-5.4,11.6-3.1,3.4-7.7,8.2-14,14.6-11.7,11.9-27.6,27.6-43,42.9s-33.4,33.1-45.7,45.6c12.7-7.5,29.5-17.9,44.3-27.1,57.4-35.7,63.6-38.9,67.6-37.9a4.4,4.4,0,0,1,3,2.3c2.1,3.6-.9,7-6.8,13.1-4,4.2-9.8,9.9-17.9,17.5-14.8,14-34.8,32.2-54.1,49.9-16.9,15.3-36.1,32.9-49.8,45.8,16-9.4,37.8-22.7,56.9-34.3,81.2-49.4,85.9-51.4,89.6-50.4a4.8,4.8,0,0,1,3,2.2c2.2,3.8-1.2,7.2-6.3,12.4-3.7,3.7-9.1,8.8-16.6,15.7-13.8,12.7-32.1,29-51.5,46.2s-46.5,41.2-63.2,56.9c13-7.7,29.9-18,45.7-27.6,76.7-46.7,84.8-50.9,88.9-49.8a4.6,4.6,0,0,1,2.9,2.2c2.2,3.8-.9,7.2-7.7,13.9-4.5,4.5-11.2,10.7-20.3,19-16.8,15.2-39.3,34.9-61,54-18.7,16.4-38.8,34-53.4,47.2,14-8.3,31.6-18.9,47.2-28.4,72.3-43.8,75.8-45.3,79.3-44.4a4.9,4.9,0,0,1,2.9,2.2c2,3.6-.9,6.6-6.4,12-3.6,3.7-9,8.8-16.3,15.6-13.6,12.6-31.6,28.9-50.6,46.1-21.1,19.1-45.4,41.1-61.5,56.2,16.2-9.5,38.4-23,57.9-34.8,73.9-44.8,77.5-46.3,81-45.4a4.7,4.7,0,0,1,2.9,2.1c2.1,3.7-1.2,7.2-5.7,12s-8.4,8.5-15.2,15.1c-12.6,12.1-29.2,27.5-46.9,43.9s-40.4,37.6-54.8,51.6c12.3-7.3,28.1-16.9,42.1-25.4,64.8-39.4,65.7-39.2,68.8-38.4a4.7,4.7,0,0,1,2.9,2.2c1.9,3.3-.5,6.5-4.9,11.8-3,3.5-7.3,8.4-13.3,14.8-11,11.9-25.8,27.3-40.1,42.3-12.4,12.8-26.5,27.5-36.5,38.2,14.8-8.5,36.3-21.7,53.7-32.4,59.4-36.5,62.2-37.6,65.6-36.8a4.6,4.6,0,0,1,2.9,2.2c2.1,3.6-.8,6.5-5.6,11.4-3.3,3.3-8,7.9-14.6,14-12.2,11.4-28.6,26.3-46,42.1-22,20-49.4,44.8-66.3,61.1,11.8-7.1,26.9-16.4,40.2-24.7,59.2-36.7,66.2-40.2,70.2-39.2a5.1,5.1,0,0,1,2.9,2.3c2,3.3-.5,6.3-4.3,11-2.7,3.2-6.5,7.7-11.8,13.6-9.8,10.9-23.1,25.3-35.9,39.2s-25,27.1-34.6,37.8c10.6-6.3,24.4-14.8,37.3-22.7,65.2-40.1,73.4-44.3,77.4-43.2a4.6,4.6,0,0,1,3,2.2c2.2,3.7-.8,6.9-7.1,13.2-4.2,4.2-10.4,10-18.9,17.7-15.6,14.2-36.9,32.9-57.5,51s-43.8,38.6-59.7,53.2c16.3-9.6,38.4-23,56.6-34.1,68.2-41.5,69-41.3,72.2-40.5a4.4,4.4,0,0,1,2.8,2.2c2,3.4-.5,6.6-5.7,12.3-3.4,3.9-8.4,9.1-15.3,16.1-12.7,12.8-29.7,29.5-46.2,45.5-13.7,13.5-29.3,28.7-40.7,40.2l44-26.6c71.2-43.5,75.4-45.2,79.1-44.2a4.6,4.6,0,0,1,2.9,2.2c1.9,3.3-.6,6.5-4.5,11.3s-6.8,8.1-12.3,14.3c-10.1,11.5-23.6,26.3-36.8,40.7-11.4,12.6-24.6,27-33.6,37.2,19-10.6,52.4-31.3,78.8-47.6,67.4-41.7,74.1-45.1,78-44.1a4.4,4.4,0,0,1,2.9,2.2c2.1,3.5-.8,6.6-5.3,11.2-3,3.2-7.5,7.6-13.7,13.6-11.5,11-27.1,25.4-43.5,40.7-21.6,20.1-48.7,45.2-64.2,60.7,26.5-14.7,79.2-46.8,123.6-73.8,35.9-21.9,73-44.5,101.3-61.2,48.9-28.8,51.5-28.1,54.3-27.4a5,5,0,0,1,3,2.3c2.3,4-1.1,7.4-9.1,14.7-5.3,4.9-13.1,11.6-23.8,20.6-19.8,16.7-46.6,38.6-72.5,59.7s-58.7,48-78.2,64.7c29.4-16.6,81.9-48.8,126.7-76.1,37-22.7,75.3-46.2,104.5-63.4,50.3-29.7,53.3-28.9,56.1-28.2a4.8,4.8,0,0,1,3.1,2.3c2.1,3.6.2,6.6-10.3,16.1-6.1,5.6-15.1,13.2-27.3,23.3-22.7,18.7-52.7,42.7-81.8,65.9s-59.3,47.3-78.2,63c30.3-16.7,86.8-51.6,134.6-81.1,36.2-22.3,73.7-45.4,102-62.2,48.7-28.9,51.9-28.1,54.7-27.4a5.2,5.2,0,0,1,3.2,2.4c2.2,3.8-1.2,7-7.3,12.8-4.2,4-10.4,9.5-18.9,16.9-15.8,13.8-36.9,31.5-59.2,50.3-27.5,23.3-62.3,52.6-81.7,70.1,30.1-16.6,89.9-53.2,140.5-84.1,40-24.6,81.5-50,113.1-68.6,54.4-32.1,57.7-31.3,60.5-30.5a5.1,5.1,0,0,1,3.2,2.3c2.2,3.9-.5,7.3-10.4,16.1-6.3,5.6-15.3,13.1-27.8,23.1-23.1,18.6-54.4,42.8-84.6,66.1-32.4,25.1-70.3,54.4-92.4,72.6,35.2-19.6,104.2-61.3,162.4-96.5,43.1-26.1,83.8-50.7,115.5-69.3,54.2-31.8,56.5-31.2,59.2-30.5a4.6,4.6,0,0,1,3,2.2c2.3,3.9-.5,7.2-11,16.4-6.6,5.8-16.1,13.7-29.2,24.1-24.3,19.4-56.8,44.5-88.4,68.8s-70.4,54.4-92.7,72.5c36-19.8,107.5-63.2,167.8-99.9,42.4-25.7,82.4-50,113.4-68.3,52.9-31.2,55.4-30.6,58.2-29.9a5.3,5.3,0,0,1,3,2.3c2.4,4.1-1.3,8-10.2,16-6.2,5.5-15.1,13-27.4,22.9-22.8,18.3-53.8,42.2-83.7,65.3-33.4,25.9-72.6,56.1-94.3,74.2,32.3-17.8,96.1-56.9,150-89.9,41.5-25.4,84.4-51.7,117-70.9,55.8-32.9,59.1-32.1,62-31.4a5.2,5.2,0,0,1,3.2,2.4c2.1,3.7-.6,6.6-8.8,14-5.1,4.6-12.5,10.9-22.8,19.4-19,15.7-44.2,35.9-70.9,57.3-32.5,26-70.4,56.4-92.5,75.1,28.7-16.2,79.1-46.9,122-73.1,36.4-22.2,74-45.1,102.7-62,49.4-29.1,52.1-28.4,54.9-27.7a4.7,4.7,0,0,1,3,2.3c2.2,3.7-.7,6.9-8.1,13.9-4.8,4.4-11.7,10.6-21.3,18.7-17.8,15.2-42.4,35.3-66.1,54.9-30.4,25-66.2,54.4-85,71.2,10.2-5.4,26.6-14.5,52.6-29.9,37.2-22,84.8-51.1,130.7-79.2s86.3-52.9,118.9-72.2c55.6-32.9,58.6-32.1,61.5-31.4a5.5,5.5,0,0,1,3.2,2.3c2.3,4.2-.8,7.9-12.2,17.7-7.2,6.2-17.8,14.8-32.4,26.1-26.9,20.9-62.9,48-97.8,74.1s-75.9,56.8-99.4,75.4c25.6-14.6,66.4-39.7,101.5-61.3,29-17.9,56.5-34.8,78-47.6,37.3-22.1,39.5-21.5,42.1-20.9a5.6,5.6,0,0,1,3.1,2.3c2,3.5-.6,6.6-6.3,12.7-3.7,4-9.1,9.4-16.5,16.7-13.6,13.4-32,30.8-49.7,47.6-14.6,13.9-31.1,29.5-43.4,41.5,8.4-5,18-10.9,26.6-16.2,50-30.6,52.4-31.5,55.6-30.7a4.4,4.4,0,0,1,2.8,2.2,4.3,4.3,0,0,1-1.6,6.1,4.6,4.6,0,0,1-2.2.6c-5.2,2.1-29.9,17.2-49.9,29.5S1923,1959.9,1915.3,1964.4Zm85.7-55.6.3.4Zm0-.1h0Zm0,0Zm0,0Zm0,0ZM619.9,748.7h0Zm0,0Zm0,0Zm0,0Zm0-.1h0Zm0,0Zm-.1,0h0Zm0,0Zm0-.1h0Zm0,0Zm0,0Zm0,0Z"/><path class="cls-2" d="M1810.9,863.2c-16.5,9.5-20.3,10.7-22.8,10.1a5.7,5.7,0,0,1-3-2.3c-2-3.6.6-6.9,7.6-14.1,4.6-4.6,11.2-10.9,20.2-19.2,16.6-15.4,38.7-35.1,60-54.1,16.9-15.2,35.2-31.5,48.4-43.6-17.3,10.1-40.9,24.5-60.4,36.3-66.3,40.3-66.9,40.2-70.1,39.4a4.8,4.8,0,0,1-2.8-2.2c-2-3.4.5-6.3,4.8-11,2.8-3.2,6.9-7.6,12.6-13.5,10.5-10.8,24.4-24.8,39.1-39.6,16.4-16.5,35.3-35.5,47.6-48.5-14.8,8.6-36.1,21.7-53.4,32.3-54.9,33.7-55.5,33.5-58.6,32.7a4.3,4.3,0,0,1-2.8-2.1c-1.9-3.3.5-6.3,4.2-10.9,2.5-3.1,6.2-7.5,11.4-13.2,9.4-10.7,22.4-24.8,34.9-38.4s26.5-28.9,36.2-39.9c-13.2,7.7-32,19.3-48.3,29.4-58.6,36.1-64.4,39.1-68.2,38.1a4.8,4.8,0,0,1-3-2.2c-1.8-3.2.4-5.9,4.2-10.4,2.4-3,6-7.1,10.9-12.6,9.1-10.1,21.1-23.1,33.8-36.9s28.9-31.3,39.4-43.1c-9.7,5.8-22,13.6-32.9,20.4-48.1,30.1-53.4,32.7-57.2,31.8a5.6,5.6,0,0,1-3.1-2.3c-1.8-3.2.4-6,4.2-10.7,2.4-3.2,6.1-7.5,11-13.2,9.2-10.7,21.7-24.7,33.7-38.2s23.6-26.5,32.5-36.9c-13.9,8.1-34.1,20.4-51.7,31.1-63.6,38.7-64.4,38.5-67.5,37.7a4.4,4.4,0,0,1-2.9-2.2c-1.7-3,.2-5.8,2.9-9.8s4.6-6.5,8.3-11.5c7-9.2,16.4-21.4,25.6-33.2s18.8-24.3,25.9-33.7c-11.9,7-29.3,17.7-44.5,27-57.6,35.5-63.9,38.7-67.6,37.7a4.8,4.8,0,0,1-3-2.2c-1.9-3.3.5-6.2,4.5-11.2,2.6-3.3,6.5-7.8,11.9-13.9,9.8-11.3,23-25.9,35.8-40s24.7-27.3,33.7-37.6c-20,11.2-56.2,33.5-86.9,52.5-23.6,14.5-47.9,29.5-66.3,40.4-32.1,19.1-34.3,18.6-36.7,18a5.6,5.6,0,0,1-3.1-2.3,4.6,4.6,0,0,1,1.7-6.2,4.5,4.5,0,0,1,3-.5c8.6-2.7,57.3-32.8,96.6-57.1,24.4-15,49.5-30.5,68.8-41.9,33.6-20,35.8-19.4,38.4-18.8a5.6,5.6,0,0,1,3.1,2.3c1.8,3.2-.3,5.8-3.9,10.1s-5.5,6.7-10.1,11.9c-8.4,9.6-19.7,22-31.6,35.2s-28.9,32-39.5,44.2c13-7.6,31.5-19,46.5-28.3,56.8-34.9,59.8-36,63.1-35.2a4.8,4.8,0,0,1,3,2.2c1.7,3-.2,5.7-2.8,9.6s-4.5,6.2-8.1,11.1c-6.7,8.9-15.9,20.7-24.8,32.2s-19.7,25.3-26.9,35.1c12.7-7.4,32.1-19.2,48.7-29.3,66.6-40.5,70-41.9,73.4-41a4.4,4.4,0,0,1,2.9,2.2c1.8,3.1-.3,5.8-3.8,10.2s-5.6,6.9-10.2,12.2c-8.6,9.9-20.3,23.1-31.7,35.9s-26.7,30.1-36.4,41.3c10.6-6.3,24.7-15.1,36.3-22.4,46.5-29.1,51.3-31.4,55-30.5a5.1,5.1,0,0,1,3,2.2c1.9,3.3-.6,6.3-4.6,11.1-2.6,3.3-6.6,7.8-12,13.8-9.9,11.2-23.4,25.8-36.4,39.9s-25.3,27.4-34.9,38.1c12.7-7.5,30.4-18.4,45.8-27.9,59.5-36.7,65.9-39.9,69.7-38.9a4.8,4.8,0,0,1,3,2.2c1.9,3.2-.5,6.2-4.1,10.6s-6.1,7.3-11.1,12.9c-9.2,10.4-21.9,24.2-34.1,37.5s-26.5,28.8-36.4,40c10.3-6.1,23.6-14.2,35.9-21.9,64.6-39.6,72.1-43.4,76.2-42.4a5.1,5.1,0,0,1,2.9,2.3c2.1,3.5-.7,6.6-5.3,11.8-3.1,3.6-7.7,8.5-14.1,15.1-11.6,12.2-27.4,28-42.7,43.4-13.2,13.3-28.3,28.5-39.3,39.9,12.6-7.5,29.2-17.6,44.7-27,19.8-12.1,40.3-24.5,56.3-34,28.6-16.7,30.2-16.3,32.5-15.7a4.4,4.4,0,0,1,2.9,2.2c2.1,3.6-.9,6.6-5.9,11.6-3.3,3.3-8.3,8.1-15.2,14.3-12.7,11.7-29.9,27.1-48.1,43.3-23.5,21-52.9,47.3-70.5,64,16.8-9.8,41.2-24.8,62.5-37.9,74.7-46.1,83.3-50.5,87.6-49.4a4.6,4.6,0,0,1,1.4,8.4,4.8,4.8,0,0,1-2.8.6c-7.6,2.5-48.5,27.7-81.5,48.1S1823.4,855.9,1810.9,863.2Zm142.8-89.4Zm0,0Zm0,0Zm0,0Zm0,0Zm0,0Zm-.1,0Zm0,0Zm0-.1h0ZM1547.2,616.9Zm0-.1h0Zm0,0Zm503.7,657.5c-5.6,3.2-6.6,3.2-8.3,2.8a5.2,5.2,0,0,1-2.9-2.2c-1.9-3.4.5-6.5,5.4-12.3,3.3-3.8,8-9,14.6-15.9,12-12.8,27.9-29.1,43.2-44.9,11.6-11.8,23.9-24.5,33.3-34.3-11.7,6.9-26.6,16.1-39.8,24.2-63.7,39.2-71.1,42.9-75.1,41.9a4.8,4.8,0,0,1-3-2.2c-1.6-2.9.2-5.5,2.6-9.2s4.1-5.7,7.5-10.2c6.1-8.3,14.4-19,23.2-30.4s21.1-27.4,28.8-37.9c-12.8,7.4-32.5,19.4-49.4,29.7-63,38.2-63.8,38-66.9,37.2a4.5,4.5,0,0,1-2.9-2.1c-1.9-3.3.4-6.3,4.4-11.3,2.7-3.3,6.7-7.8,12.1-13.9,10.1-11.1,23.7-25.6,36.9-39.7s26-27.8,35.7-38.6c-15.2,8.9-37.9,22.7-57.6,34.6-76.5,46.5-80.6,48.2-84.2,47.2a4.6,4.6,0,0,1-2.9-2.2c-2-3.4.6-6.3,5.3-11.7,3.1-3.5,7.7-8.4,14-15,11.5-12.1,27.1-27.9,42.2-43.3,13.1-13.3,28-28.5,38.9-39.9-14.8,8.7-35.4,21.1-53.3,32-72.6,44.1-73.5,43.8-76.8,43a4.4,4.4,0,0,1-2.8-2.2c-2-3.4.6-6.3,5-11,2.9-3.2,7.2-7.6,13.1-13.5,10.9-10.9,25.5-25.1,40.9-40.2,17.6-17.1,39.4-38.3,53.3-52.5-17.2,9.9-43.1,25.6-64,38.4-68.3,41.5-69,41.3-72.2,40.5a4.4,4.4,0,0,1-2.8-2.2c-2-3.4.6-6.7,5.3-12.1,3.2-3.6,7.9-8.6,14.3-15.3,11.9-12.3,27.9-28.3,43.4-43.7s31.9-31.8,43.1-43.4c-25,13.8-73.7,43.5-114.9,68.7-29.8,18.2-60.7,37.1-83.9,50.8-40.1,23.6-42.2,23.1-44.8,22.4a4.8,4.8,0,0,1-3-2.2c-2.2-3.9.9-7,8.2-13.7,4.8-4.4,11.7-10.4,21.4-18.4,17.8-15,41.5-34.2,66.7-54.6,33.2-27,72.4-58.7,92.8-76.6-28.7,15.6-86.6,51.4-135.3,81.5-36.9,22.9-75.1,46.5-104.2,63.8-50.1,29.7-53.7,28.8-56.5,28.1a5.4,5.4,0,0,1-3.3-2.4c-2.2-3.8,1.4-7.2,3.8-9.5s5.7-5.1,10.3-8.8c8.4-6.7,20.6-15.9,37.4-28.2,31-22.9,73.6-53.2,114.7-82.5,54.2-38.6,118.5-84.4,148.2-107.6-10.3,5.5-25.8,14.2-49.2,28.1-37.2,22.1-85.4,52-132.1,80.8s-96,59.4-133,81.4c-63.2,37.5-67.6,36.4-70.8,35.6a5.5,5.5,0,0,1-3.4-2.5c-2.3-4,1.7-7.7,4.1-9.9s6.3-5.4,11.5-9.4c9.3-7.1,22.9-17,41.7-30.1,35-24.4,82-56,131.7-89.5,53.1-35.7,108.1-72.8,150.4-102.3,35.5-24.8,54.2-38.9,64-46.9-12.8,6.1-37.4,19.3-84,46.8-52.6,31-118.9,71.5-182.9,110.7-55.6,34-108.1,66.1-148.1,89.9-67.7,40.1-71.2,39.2-74.2,38.5a4.8,4.8,0,0,1-3.1-2.4c-2.1-3.5.6-6.8,5.9-12.8,3.6-4,8.8-9.6,16-16.9,13.2-13.6,30.6-30.8,47.4-47.4,12.6-12.4,26-25.7,36-35.9-14.4,8.5-34,20.5-51.2,31-68.5,41.9-72.2,43.4-75.8,42.5a4.6,4.6,0,0,1-2.9-2.2c-1.7-2.9.1-5.4,2.7-9.3s4.2-6.1,7.6-10.8c6.3-8.7,15.1-20.3,23.5-31.5s19.1-25.3,26.1-35l-.9.5c-14,8.1-35.8,21.4-54.5,32.8-69.2,42.3-73,43.8-76.5,42.9a4.7,4.7,0,0,1-2.9-2.2c-2-3.5.6-6.3,5.1-11,2.9-3.2,7.2-7.5,13.2-13.4,11-10.8,25.8-25,41.5-40,18.6-17.7,41.6-39.7,56.6-54.7-11.8,7-26.8,16.3-40.1,24.4-66.4,40.7-70.4,42.2-74,41.3a4.8,4.8,0,0,1-3-2.2c-2-3.5.8-6.6,5.3-11.8,3.1-3.5,7.6-8.4,13.9-15,11.5-12,27.1-27.8,42.1-43.1,13.6-13.7,29-29.3,40-40.8-14.6,8.5-35.1,21-53,31.9-63.2,38.6-66.1,39.8-69.5,38.9a4.7,4.7,0,0,1-2.9-2.1c-1.7-3,.2-5.6,3.4-9.9,2-2.8,4.9-6.6,9-11.7,7.5-9.5,17.9-22.1,27.8-34.3s21.1-25.7,29.1-35.8c-9.6,5.7-22,13.4-33,20.2-53.2,32.9-59.5,36-63.2,35.1a5,5,0,0,1-3-2.3c-2-3.3.6-6.3,4.4-10.7s6.4-7.2,11.6-12.8c9.8-10.4,22.7-23.7,36.4-37.8,15.1-15.6,33.8-34.8,45.7-47.7h-.1c-15,8.6-37.1,22.1-55,33.1-57.5,35.3-58.3,35.1-61.3,34.3a4.6,4.6,0,0,1-2.9-2.1c-2.2-3.8,1.1-7.3,7.5-13.7,4.5-4.4,10.9-10.4,19.9-18.3,16.5-14.8,38.9-34.1,60.6-52.8s44.1-38.1,60.5-52.8c-15.8,9.3-36.8,22-56.3,33.9-23.7,14.3-48.2,29.2-67.3,40.4-33.6,19.7-35.3,19.3-37.7,18.7a4.6,4.6,0,0,1-3-2.2c-2.4-4.2,1.9-8.1,5.1-11s7.9-6.6,14.5-11.5c11.7-8.8,28.9-20.9,52.5-37.1,43.9-30,104.1-69.8,162.3-108.3s116.2-77,160.9-107.4c28-19.2,46.1-32,57.8-40.6-38.3,21.1-115.3,68.2-185.2,111-56,34.2-113.9,69.6-158.5,95.9-76.2,44.9-80.9,43.7-84.2,42.9a5,5,0,0,1-3.3-2.5c-2.6-4.4.6-8.5,16.3-20.8,10-7.8,24.6-18.5,44.8-32.6,37.3-26.2,88.8-60.8,138.6-94.3s99.5-67,137.7-93.7c28.8-20,45.3-32.3,54.7-39.9-11.4,5.8-30.9,16.5-64.2,36.1-42.8,25.3-96.7,58.3-148.8,90.3-46.2,28.3-89.9,55.1-123.4,75-56.8,33.7-59.9,32.9-62.8,32.2a5.6,5.6,0,0,1-3.1-2.3c-2.4-4.2,1.2-7.6,12.8-16.8,7.5-6,18.5-14.3,33.6-25.4,28.1-20.5,65.7-47.3,105.5-75.6,57.8-41.1,126.2-89.7,159.3-115.5-30.1,16.9-82.8,49.1-127.6,76.6-37,22.7-75.3,46.1-104.4,63.2-50,29.5-52.9,28.8-55.7,28.1a5.3,5.3,0,0,1-3.1-2.4c-2.2-3.8.9-7.3,9.1-14.8,5.3-4.9,13.1-11.7,23.8-20.7,19.9-16.7,46.8-38.5,72.8-59.6,24-19.4,51.4-41.6,70.9-58l-16.9,10.2c-47.6,28.8-48,28.7-50.8,27.9a4.6,4.6,0,0,1-2.8-2.1,4.4,4.4,0,0,1,1.6-6.1,2.9,2.9,0,0,1,1.7-.6c4.5-1.9,27.2-15.7,45.6-26.8,49.6-29.9,50-29.8,52.9-29.1a4.4,4.4,0,0,1,2.8,2.2c2.3,3.9-1.1,7.3-8.4,14-5,4.6-12.2,10.9-22.2,19.2-18.5,15.5-44,36.2-68.7,56.2-31.1,25.2-67.5,54.7-87.8,72.3,29.6-16.3,86.6-51.2,134.9-80.8,36.4-22.2,74-45.3,102.5-62.1,48.9-28.9,51.7-28.1,54.4-27.4a4.4,4.4,0,0,1,3.1,2.3c2.3,3.9-1.5,7.6-4,10.1s-6.4,5.7-11.6,9.9c-9.3,7.6-22.9,17.9-41.5,31.6-34.4,25.4-80.3,58-124.7,89.5s-94.4,67.2-123.5,89c35.2-20.1,95.6-57.1,151-91.1,53.3-32.7,108.4-66.5,151.7-92,74.4-43.7,79.1-42.5,82.6-41.7a5.6,5.6,0,0,1,3.3,2.5c2.6,4.5-.9,9-17,21.7-10.5,8.2-25.8,19.4-46.8,34.2-39,27.3-92.1,63.1-143.5,97.7-47.4,31.8-96.3,64.8-133,90.3-25.3,17.7-40.7,29-50,36.3,11.9-6.1,31.6-17,64.2-36.3,44.1-26.1,100.7-60.6,155.4-94.1,52.9-32.4,103-63,141.9-86,66.1-39.1,69.7-38.2,72.8-37.4a4.8,4.8,0,0,1,3.2,2.3c2.4,4.3-2,8.3-5.3,11.2s-8.2,6.9-15,12c-12.2,9.2-30,21.8-54.5,38.5-45.4,31.1-107.2,72-166.9,111.6-55.7,36.8-113.2,74.9-156.4,104.3-17.1,11.7-30.4,20.9-40.7,28.2,19-11.2,41.8-25,61-36.7,79.5-48.2,83-49.7,86.5-48.8a4.7,4.7,0,0,1,2.9,2.1c2.1,3.7-.8,6.9-7.1,13-4.1,4.1-10.2,9.7-18.6,17.1-15.4,13.8-36.7,32.2-57.4,50-22.3,19.2-47.9,41.4-65.3,57.1,9.5-5.8,20.6-12.5,31-19,65.2-39.9,72.8-43.8,76.7-42.7a4.6,4.6,0,0,1,3,2.2c1.9,3.3-.5,6.5-5,11.7-3,3.6-7.4,8.4-13.4,14.9-11.2,11.9-26.2,27.4-40.7,42.3-12.7,13.2-27.3,28.2-37.6,39.1,11.8-6.9,27.3-16.5,40.2-24.5,48-29.7,50.2-30.5,53.4-29.7a4.6,4.6,0,0,1,2.9,2.2c1.7,3-.2,5.6-3.4,10-2,2.8-5,6.7-9.2,11.9-7.6,9.6-18,22.3-28.1,34.6s-20.9,25.5-28.8,35.5c13.2-7.7,32.6-19.5,49.3-29.7,69.4-42.4,73.5-44,77.1-43.1a4.6,4.6,0,0,1,2.9,2.2c1.9,3.4-.6,6.2-4.8,11-2.7,3.1-6.8,7.5-12.4,13.3-10.4,10.8-24.1,24.7-38.6,39.5s-34.3,34.6-46.4,47.5c14.3-8.4,34.4-20.7,50.9-30.8,59.3-36.3,62.1-37.4,65.4-36.6a5.3,5.3,0,0,1,2.9,2.2c2,3.6-.6,6.7-6.4,13-3.8,4.1-9.3,9.8-16.9,17.3-14,13.8-32.6,31.5-50.6,48.7-14.3,13.7-29.7,28.4-41.1,39.5,14.2-8.3,33.1-19.9,49.8-30,66.8-40.8,70.2-42.2,73.6-41.3a4.4,4.4,0,0,1,2.9,2.2c1.7,2.9-.1,5.6-2.8,9.6s-4.4,6.4-8,11.4c-6.7,9.1-15.7,21.2-24.5,32.8s-17.8,23.7-24.5,32.8c14.4-8.2,37.6-22.4,57.5-34.6,69.3-42.3,73.1-43.8,76.7-42.9a4.6,4.6,0,0,1,2.9,2.2c2,3.3-.6,6.2-4.5,10.5-2.6,2.8-6.4,6.8-11.7,12.2-9.8,10-23.1,23.1-37.1,37-19.6,19.4-44.4,43.9-57.9,58.2,34-17.8,122.9-72.2,202.9-121.1,65.3-40,132.8-81.3,185.9-112.5,91-53.6,96.7-52.1,100.5-51.2a5.6,5.6,0,0,1,3.4,2.6c2.5,4.3,0,8.5-19.1,23.4-11.7,9.2-28.7,21.6-52.1,38-43.1,30.2-100.7,69-156.4,106.5-64.6,43.5-135.7,91.4-168.2,115.6,10.1-5.4,24.9-13.8,46.5-26.6,36.6-21.8,84.2-51.3,130.2-79.7,47.8-29.6,97.2-60.2,134.8-82.5,64.4-38.1,68.8-37,72.1-36.2a5.5,5.5,0,0,1,3.4,2.5c2.2,3.8-1.4,7.2-3.8,9.5s-5.7,5.1-10.4,8.9c-8.5,6.7-20.8,16.1-37.7,28.5-31.3,23-74,53.5-115.4,82.9-51.8,36.9-112.9,80.5-143.7,104.2,30.6-17.1,85.1-50.9,131.6-79.6,36.5-22.6,74.2-46,102.9-63,49.3-29.3,52.6-28.4,55.6-27.7a5.2,5.2,0,0,1,3.2,2.4c2.3,3.9-.8,7.3-9.3,15.2-5.6,5.2-13.7,12.2-24.8,21.5-20.5,17.3-48.1,39.6-74.8,61.3s-55,44.6-73.7,60.5c25-14.5,64.7-38.7,98.8-59.5,31.4-19.2,63.8-39,88.5-53.5,42.9-25.3,45.4-24.7,48-24a4.4,4.4,0,0,1,3,2.3c2,3.4-.8,6.6-4.7,11.1s-6.9,7.5-12.6,13.4c-10.5,10.8-24.5,24.7-39.3,39.5s-34.7,34.5-47.4,47.8c13.2-7.8,31.4-18.9,48.3-29.1,78.9-48.1,83.9-50,87.6-49.1a4.6,4.6,0,0,1,2.9,2.2c2,3.5-.5,6.5-5.9,12.5-3.5,3.9-8.7,9.2-15.7,16.3-13,13.1-30.4,30-47.2,46.4-13.8,13.4-29.4,28.6-40.9,40.1,14.4-8.5,33.6-20.1,50.5-30.4,71.2-43.2,74.7-44.6,78.1-43.7a4.4,4.4,0,0,1,2.9,2.2c1.9,3.3-.4,6-4.8,10.8-2.7,3.1-6.8,7.5-12.3,13.3-10.3,10.7-24,24.6-38.4,39.3s-33.9,34.5-46.1,47.4c16.2-9.4,40-23.9,60.7-36.4,72.9-44.3,76.4-45.7,79.9-44.9a5.3,5.3,0,0,1,2.9,2.2c1.9,3.3-.7,6.4-4.1,10.7s-6.2,7.1-11.2,12.7c-9.2,10.2-21.5,23.3-34.4,37.1s-29.2,31.2-39.8,43c12.5-7.4,29.8-17.8,44.9-27,63.8-38.8,64.7-38.6,67.8-37.8a4.9,4.9,0,0,1,2.9,2.2c1.7,3-.3,6-3.1,10.1s-4.8,6.9-8.7,12.2c-7.3,9.8-17.1,22.4-26.5,34.7-8.1,10.5-17.3,22.5-23.8,31.2,14.4-8.2,38-22.7,56.7-34.2,58.5-36,61.3-37.1,64.7-36.2a4.6,4.6,0,0,1,2.9,2.2c1.9,3.2-.5,6-4.2,10.2s-6,6.7-11,12c-9.2,9.6-21.5,22.4-34.6,35.8-15.2,15.5-33.7,34.5-46.5,48.2h0c23-14.4,24.1-14.7,26.7-14a4.6,4.6,0,0,1,2.9,2.2,4.4,4.4,0,0,1-1.6,6.1,3.9,3.9,0,0,1-2,.6c-3.1,1.4-13.5,7.9-21.2,12.7S2054.4,1272.3,2050.9,1274.3Zm33.8-25.3Zm0,0Zm0,0ZM1386,531.6a5.4,5.4,0,0,1,1.5,1.5A3.6,3.6,0,0,0,1386,531.6Z"/><g class="cls-5"><path class="cls-6" d="M1429.7,1368.2c.1.3,39.9-23.4,40-23.1,1.5,2.5-72.8,94.2-71.1,97s53.2-32.5,54-31.2c2,3.5-108.1,114.7-106.5,117.5s63.1-39.2,64.3-37.2c2,3.5-86.5,101.5-84.6,104.8,3.4,5.9,194.7-119.2,197.7-114.1"/><path class="cls-6" d="M1111.9,1479.9c.2.4,42.1-24.8,42.4-24.4,1.5,2.7-80.6,98.5-78.9,101.4.6,1.1,40.4-24.7,41-23.6,2.1,3.5-110.7,116.1-109.1,118.9s83.7-51.9,85.2-49.2-108.6,113.5-106.3,117.3c3.9,6.9,230.2-140.7,233.5-134.8,2.1,3.5-122.2,121.9-120.2,125.3s105.3-63.2,106.3-61.4-45.4,79.3-44.2,81.4c4.8,8.2,386.1-237.8,392.6-226.6,1.9,3.3-85.1,101.2-83.4,104s104-63.8,105.6-61-123.7,122.9-121.7,126.3,92.2-56.4,93.5-54-31,71.5-30,73.2c3,5.3,185.5-113,188-108.6,1.3,2.2-45,79.8-44.1,81.5s30.3-18.5,30.7-17.8,27,39,27.6,40,15.2-9.3,15.5-8.9"/><path class="cls-6" d="M1505.9,647c3.6,6.2,251-153.7,254.8-147.1,1.2,2.1-51.1,82.4-49.8,84.7s55.5-34,56.3-32.6-51.9,83.7-50.9,85.4,48.8-30.3,49.7-28.7,1.9,53.1,2.7,54.4,72.8-45.3,74.2-42.9-50.1,82.3-49,84.2,70.1-41.8,70.7-40.8-67.5,91.4-66,94,84.3-52.3,85.9-49.6-10.5,60.2-9.7,61.5,45.4-28.2,46.2-26.7c2.1,3.6-128.3,125.4-126.3,128.9s95.9-58.7,97.3-56.2"/><path class="cls-6" d="M1385.4,540.8c1.5,2.6,121.9-74.1,123.5-71.3s-98.2,108.1-96.3,111.5,145.6-89,147.7-85.2c4.3,7.3-263.5,200.4-260.2,206.1,2,3.5,153.2-94.8,156-90,4.1,7.2-219.3,173.3-215.3,180.2,8,13.8,502.5-305.8,509.3-294.1S1290.8,804.7,1297,815.5c1.2,2,93.2-55.8,94.1-54.3,2.1,3.6-117.1,118.3-114.8,122.2,1.3,2.3,98.8-61.2,100.6-58.1s-28.9,70.4-28,72.1,18.9-12.2,19.5-11.3-26.3,69.2-25.5,70.7,54.3-33.1,55.1-31.8-63.6,89.4-62.2,91.8c2.5,4.4,153.9-93.8,156-90.1s-97.4,108.8-95.9,111.4,60.2-36.7,61-35.3-37.4,75.2-36.4,77c2.2,3.8,151.8-92.9,154-89,.9,1.4-32,71.7-30.8,73.7s74.1-45.3,75.2-43.4-21.3,66.4-20.5,67.8c3,5.2,159.4-99.1,162.5-93.8S1611.7,1132,1614,1135.8c5,8.7,271-167.7,275.9-159.3,1.2,2.2-45.3,79.6-44.2,81.5s66.2-39.9,66.9-38.7-60.8,87.4-59.2,90.1,138.6-84.8,140.7-81.2c1.1,2-39.2,76.4-38.3,78s66.4-40.1,67.2-38.7-108.1,114.1-106.3,117.3c.9,1.6,79.4-47.9,80.3-46.4s-38.2,75.1-37,77.3,140.2-85.2,142-82-19.2,65-18.3,66.5,46.3-28.5,47-27.2-82.8,99.3-80.9,102.6c.6,1,19.3-12.4,19.9-11.4"/><path class="cls-6" d="M1814.4,1301.4c.2.3,39.9-23.5,40.1-23.2s-1.1,54.8-.3,56.1,18.4-11.2,18.7-10.8-13.4,62.2-12.7,63.3,10.4-6.5,10.6-6.1-21.7,66.1-20.7,67.9c2,3.4,97.1-60,98.8-57.1s-48.8,81.6-47.7,83.4,91.9-55,92.7-53.5c2.1,3.6-117.5,118.6-115.3,122.5,1.4,2.4,106.8-66.1,108.7-62.7,1,1.8-23.9,67.6-23,69.1s33.4-21,34.1-19.7c1.9,3.2-109.6,115.1-107.8,118.2.9,1.5,71-43.3,72-41.6s-45,79.3-43.9,81.3c2.5,4.4,152.9-93.2,155.1-89.5s-158.4,142.3-156.2,146.1c.9,1.6,62.8-38.3,63.7-36.8"/><path class="cls-6" d="M729.8,866.1c5.4,9.4,362.8-222.7,368.6-212.8,4.4,7.8-292.7,213.7-287.8,222.1S1118.4,687.2,1123,695.1c1.9,3.4-103.2,111.9-101.6,114.6.7,1.2,51.4-31.9,52.3-30.3s-16.7,63.4-15.8,65.1,32.2-19.5,32.6-18.8"/><path class="cls-6" d="M587.8,773.7c1.2,2,100.2-60.6,101.4-58.5s-29.8,70.7-28.7,72.5S769.6,721,771.2,723.8c3.5,6-210.3,171.1-207.6,175.8,1.8,3.1,137.4-85,139.8-80.8S582.8,938.9,585.2,943c7,12.2,436.1-265.5,442-255.2S616.3,968,622,977.7c1.1,2.1,95.1-57,96-55.5,2.2,3.9-129.3,125.1-126.9,129.2s119.5-73.9,121.6-70.2c1.2,2-32.8,72.6-31.8,74.3s24.5-15.6,25.1-14.5c1.7,2.9-100.2,109.9-98.5,112.8s80.7-49.3,81.9-47.3-74.1,95.2-72.6,97.8,131-79.8,132.8-76.6-112.8,117.2-111.1,120.1,71.9-43.9,72.9-42.1-101,110.1-99.3,113.2,155.8-95.3,158.1-91.3S678,1332,680,1335.6c.7,1.1,60.1-36.7,61-35.2s-53.1,84-52,86,40.3-25.6,41.3-23.9-109,114.8-107.2,117.9c3.2,5.5,169.6-105.3,172.8-99.8,2,3.5-98.6,108.9-96.9,111.8s97.4-59,98.6-56.9c2.3,4-129.8,124.7-127.1,129.3s152.7-93.5,155-89.5-89.2,104.1-87.7,106.6,75.3-45.6,76.2-44c2.2,3.9-169.4,147.8-166.8,152.3,1.1,2,95.5-57.7,96.6-55.8,2.2,3.9-120.2,119.5-117.7,123.8s150.2-91.2,152.2-87.8-44.5,79-43.4,80.9,37.9-23.3,38.5-22.2c1.7,2.9-109.8,113.9-107.4,118s151.5-94.1,154.3-89.2c1.3,2.2-50.2,82.3-49.1,84.3s31.6-20,32.4-18.7c1.9,3.4-105.4,112.5-103.6,115.7.9,1.5,61.1-36.9,61.8-35.7,1.9,3.3-82.5,100-80.9,102.7s145.3-89.1,147.5-85.2c1.1,1.9-31.5,72.1-30.6,73.6s51.2-31.9,52.2-30.1-90.3,103.2-88.2,106.8c3.6,6.3,275.5-168.2,279.4-161.3.7,1.1-3.8,56.7-3.2,57.8,1.6,2.7,95.8-59.2,97.5-56.3,3,5.2-165.3,146-163,150s95-58.9,96.8-55.9c.5,1,11.3,47.9,11.9,49.1,4.3,7.4,296.3-181.7,300.9-173.7,2.1,3.6-101,109.8-99.1,113.1s137.7-82.5,139-80.3-101.9,111-100.3,113.8c5,8.6,347.3-210,351.4-202.9,1.6,2.7-60.9,87.8-59.4,90.3s143.8-87.7,145.8-84.2-123.3,122.1-121.1,125.8c1.1,2.1,69.5-43.1,70.8-40.9s-37.3,74.9-36.1,76.8c6.3,11,383.2-233.6,388.6-224.3,3.3,5.8-177.1,151.8-174.3,156.5s105.8-65.1,107.5-62.1-86.5,102.5-85,105.1,97.9-60.1,99.5-57.5"/></g></svg>